#N canvas 408 129 553 456 10;
#X text 17 367 computer music;
#X text 17 376 center \, columbia;
#X text 18 384 university;
#X text 18 358 by r. luke dubois \,;
#X text 8 6 absmax~;
#X text 8 20 returns the signal farthest from zero.;
#X obj 54 88 tgl 15 0 empty empty empty 0 -6 0 8 -262144 -1 -1 1 1
;
#X obj 54 64 loadbang;
#X obj 54 109 metro 40;
#X obj 54 214 snapshot~;
#X floatatom 80 137 5 0 0 0 - - -;
#X floatatom 54 237 5 0 0 0 - - -;
#X floatatom 309 80 5 0 0 0 - - -;
#X floatatom 365 80 5 0 0 0 - - -;
#X floatatom 333 302 0 0 100 0 - - -;
#N canvas 331 136 786 621 output 0;
#X obj 455 510 t b;
#X obj 455 450 f;
#X obj 455 390 inlet;
#X obj 455 540 f;
#X msg 566 532 0;
#X msg 455 420 bang;
#X obj 455 480 moses 1;
#X obj 566 502 t b f;
#X obj 535 460 moses 1;
#X obj 107 121 dbtorms;
#X obj 535 430 r master-lvl;
#X obj 107 28 r master-lvl;
#X obj 455 570 s master-lvl;
#X obj 36 228 inlet~;
#X obj 250 258 inlet;
#X obj 268 283 s master-lvl;
#X msg 119 57 set \$1;
#X obj 119 87 outlet;
#X msg 250 309 \; pd dsp 1;
#X obj 107 181 line~;
#X obj 36 258 *~;
#X obj 36 288 dac~;
#X obj 107 151 pack 0 50;
#X text 23 205 audio in;
#X text 2 313 out both channels;
#X text 273 182 Level input. Send to master-lvl and start DSP (we infer
that if you're changing the level you want to hear the network.) If
you start DSP when it's already running there's no effect.;
#X text 59 542 here is the previous nonzero master-lvl -->;
#X text 98 451 recall previous value of master-lvl -->;
#X text 239 482 test if less than 1 -->;
#X text 203 510 if true convert to bang -->;
#X text 218 351 Mute control. If the master level is zero \, restore
to the last nonzero one \, otherwise zero it.;
#X text 182 86 <-- update the number box to show new level;
#X text 178 120 <-- convert from dB to linear units;
#X text 196 150 <-- make a smooth ramp to avoid clicks or zipper noise
;
#X text 333 318 <-- automatically start DSP;
#X connect 0 0 3 0;
#X connect 1 0 6 0;
#X connect 2 0 5 0;
#X connect 3 0 12 0;
#X connect 4 0 12 0;
#X connect 5 0 1 0;
#X connect 6 0 0 0;
#X connect 6 1 7 0;
#X connect 7 0 4 0;
#X connect 8 1 3 1;
#X connect 9 0 22 0;
#X connect 10 0 1 1;
#X connect 10 0 8 0;
#X connect 11 0 9 0;
#X connect 11 0 16 0;
#X connect 13 0 20 0;
#X connect 14 0 15 0;
#X connect 14 0 18 0;
#X connect 16 0 17 0;
#X connect 19 0 20 1;
#X connect 20 0 21 0;
#X connect 20 0 21 1;
#X connect 22 0 19 0;
#X restore 309 324 pd output;
#X msg 358 302 mute;
#X obj 328 169 vsl 9 80 0 1 0 0 empty empty empty 0 -8 0 8 -262144
-1 -1 0 1;
#X obj 309 256 *~ 1;
#X obj 80 156 sig~;
#X floatatom 129 137 5 0 0 0 - - -;
#X obj 309 105 osc~ 400;
#X obj 309 133 absmax~;
#X obj 365 105 osc~ 400;
#X obj 80 182 absmax~ 1;
#X connect 6 0 8 0;
#X connect 7 0 6 0;
#X connect 8 0 9 0;
#X connect 9 0 11 0;
#X connect 10 0 19 0;
#X connect 12 0 21 0;
#X connect 13 0 23 0;
#X connect 14 0 15 1;
#X connect 15 0 14 0;
#X connect 16 0 15 2;
#X connect 17 0 18 1;
#X connect 18 0 15 0;
#X connect 19 0 24 0;
#X connect 20 0 24 1;
#X connect 21 0 22 0;
#X connect 22 0 18 0;
#X connect 23 0 22 1;
#X connect 24 0 9 0;
