#N canvas 75 71 686 558 10;
#X floatatom 228 448 0 0 100 0 - - -;
#N canvas 331 136 786 621 output 0;
#X obj 455 510 t b;
#X obj 455 450 f;
#X obj 455 390 inlet;
#X obj 455 540 f;
#X msg 566 532 0;
#X msg 455 420 bang;
#X obj 455 480 moses 1;
#X obj 566 502 t b f;
#X obj 535 460 moses 1;
#X obj 107 121 dbtorms;
#X obj 535 430 r master-lvl;
#X obj 107 28 r master-lvl;
#X obj 455 570 s master-lvl;
#X obj 36 228 inlet~;
#X obj 250 258 inlet;
#X obj 268 283 s master-lvl;
#X msg 119 57 set \$1;
#X obj 119 87 outlet;
#X msg 250 309 \; pd dsp 1;
#X obj 107 181 line~;
#X obj 36 258 *~;
#X obj 36 288 dac~;
#X obj 107 151 pack 0 50;
#X text 23 205 audio in;
#X text 2 313 out both channels;
#X text 273 182 Level input. Send to master-lvl and start DSP (we infer
that if you're changing the level you want to hear the network.) If
you start DSP when it's already running there's no effect.;
#X text 59 542 here is the previous nonzero master-lvl -->;
#X text 98 451 recall previous value of master-lvl -->;
#X text 239 482 test if less than 1 -->;
#X text 203 510 if true convert to bang -->;
#X text 218 351 Mute control. If the master level is zero \, restore
to the last nonzero one \, otherwise zero it.;
#X text 182 86 <-- update the number box to show new level;
#X text 178 120 <-- convert from dB to linear units;
#X text 196 150 <-- make a smooth ramp to avoid clicks or zipper noise
;
#X text 333 318 <-- automatically start DSP;
#X connect 0 0 3 0;
#X connect 1 0 6 0;
#X connect 2 0 5 0;
#X connect 3 0 12 0;
#X connect 4 0 12 0;
#X connect 5 0 1 0;
#X connect 6 0 0 0;
#X connect 6 1 7 0;
#X connect 7 0 4 0;
#X connect 8 1 3 1;
#X connect 9 0 22 0;
#X connect 10 0 1 1;
#X connect 10 0 8 0;
#X connect 11 0 9 0;
#X connect 11 0 16 0;
#X connect 13 0 20 0;
#X connect 14 0 15 0;
#X connect 14 0 18 0;
#X connect 16 0 17 0;
#X connect 19 0 20 1;
#X connect 20 0 21 0;
#X connect 20 0 21 1;
#X connect 22 0 19 0;
#X restore 204 471 pd output;
#X obj 203 397 agogo~ _________________________________;
#X obj 203 195 vsl 15 128 0 1 0 0 empty empty empty 0 -8 0 8 -262144
-1 -1 2573 1;
#X floatatom 203 350 5 0 0 0 - - -;
#X obj 250 195 vsl 15 128 0 1.55 0 0 empty empty empty 0 -8 0 8 -262144
-1 -1 9746 1;
#X floatatom 250 350 5 0 0 0 - - -;
#X obj 297 195 vsl 15 128 0 1 0 0 empty empty empty 0 -8 0 8 -262144
-1 -1 12446 1;
#X floatatom 297 350 5 0 0 0 - - -;
#X obj 344 195 vsl 15 128 0 10 0 0 empty empty empty 0 -8 0 8 -262144
-1 -1 9410 1;
#X floatatom 344 350 5 0 0 0 - - -;
#X obj 391 195 vsl 15 128 0 1 0 0 empty empty empty 0 -8 0 8 -262144
-1 -1 0 1;
#X floatatom 391 349 5 0 0 0 - - -;
#X obj 438 195 vsl 15 128 100 3100 0 0 empty empty empty 0 -8 0 8 -262144
-1 -1 3758 1;
#X floatatom 438 347 5 0 0 0 - - -;
#X text 297 176 amp;
#X text 435 171 freq;
#X msg 110 301 noteon;
#X msg 154 301 noteoff;
#X text 13 -3 agogo~;
#X text 13 11 agogo modal synthesis model;
#X obj 364 96 hdl 15 1 0 3 empty empty empty 0 -6 0 8 -262144 -1 -1
0;
#X text 309 79 try these presets;
#X obj 364 23 loadbang;
#X msg 364 43 0;
#X msg 253 448 mute;
#X obj 478 111 int;
#X text 174 170 stick;
#X text 173 179 hardness;
#X text 233 168 stick;
#X text 232 180 position;
#X text 341 166 vib;
#X text 337 175 freq;
#X text 389 165 vib;
#X text 384 175 gain;
#X text 14 37 agogo~ is a model synthesis;
#X text 14 66 the percussion instrument.;
#X text 15 57 you control different values of;
#X text 15 47 implementation of an agogo.;
#X text 15 92 perry cook and gary scavone).;
#X text 15 84 ported from the STK (by;
#X text 13 123 by dan trueman \,;
#X text 12 132 computer music;
#X text 12 141 center \, columbia;
#X text 13 149 university;
#N canvas 389 265 539 342 mypresets 0;
#X obj 2 2 inlet;
#X obj 2 231 outlet;
#X obj 40 231 outlet;
#X obj 78 231 outlet;
#X obj 116 231 outlet;
#X obj 154 231 outlet;
#X obj 192 231 outlet;
#X obj 2 21 sel 0 1 2;
#X obj 2 205 unpack 0 0 0 0 0 0;
#X msg 2 40 0.99 0.86 0.98 3 0 987.767;
#X msg 18 60 0.99 0.86 0.98 4.88 0.99 391.995;
#X msg 34 79 0.99 0.86 0.99 33 0.99 116.541;
#X connect 0 0 7 0;
#X connect 7 0 9 0;
#X connect 7 1 10 0;
#X connect 7 2 11 0;
#X connect 8 0 1 0;
#X connect 8 1 2 0;
#X connect 8 2 3 0;
#X connect 8 3 4 0;
#X connect 8 4 5 0;
#X connect 8 5 6 0;
#X connect 9 0 8 0;
#X connect 10 0 8 0;
#X connect 11 0 8 0;
#X restore 478 176 pd mypresets;
#X connect 0 0 1 1;
#X connect 1 0 0 0;
#X connect 2 0 1 0;
#X connect 3 0 4 0;
#X connect 4 0 2 0;
#X connect 5 0 6 0;
#X connect 6 0 2 1;
#X connect 7 0 8 0;
#X connect 8 0 2 2;
#X connect 9 0 10 0;
#X connect 10 0 2 3;
#X connect 11 0 12 0;
#X connect 12 0 2 4;
#X connect 13 0 14 0;
#X connect 14 0 2 5;
#X connect 17 0 2 0;
#X connect 18 0 2 0;
#X connect 21 0 26 0;
#X connect 23 0 24 0;
#X connect 24 0 21 0;
#X connect 25 0 1 2;
#X connect 26 0 45 0;
#X connect 45 0 3 0;
#X connect 45 1 5 0;
#X connect 45 2 7 0;
#X connect 45 3 9 0;
#X connect 45 4 11 0;
#X connect 45 5 13 0;
