#N canvas 23 49 822 525 10;
#X obj 261 14 loadbang;
#X obj 261 37 bng 15 250 50 0 empty empty empty 0 -6 0 8 -262144 -1
-1;
#X msg 261 54 117 110 51 42 10 67;
#X obj 261 76 unpack 0 0 0 0 0 0;
#X floatatom 261 256 5 0 0 0 - - -;
#X floatatom 284 385 0 0 100 0 - - -;
#N canvas 331 136 786 621 output 0;
#X obj 455 510 t b;
#X obj 455 450 f;
#X obj 455 390 inlet;
#X obj 455 540 f;
#X msg 566 532 0;
#X msg 455 420 bang;
#X obj 455 480 moses 1;
#X obj 566 502 t b f;
#X obj 535 460 moses 1;
#X obj 107 121 dbtorms;
#X obj 535 430 r master-lvl;
#X obj 107 28 r master-lvl;
#X obj 455 570 s master-lvl;
#X obj 36 228 inlet~;
#X obj 250 258 inlet;
#X obj 268 283 s master-lvl;
#X msg 119 57 set \$1;
#X obj 119 87 outlet;
#X msg 250 309 \; pd dsp 1;
#X obj 107 181 line~;
#X obj 36 258 *~;
#X obj 36 288 dac~;
#X obj 107 151 pack 0 50;
#X text 23 205 audio in;
#X text 2 313 out both channels;
#X text 273 182 Level input. Send to master-lvl and start DSP (we infer
that if you're changing the level you want to hear the network.) If
you start DSP when it's already running there's no effect.;
#X text 59 542 here is the previous nonzero master-lvl -->;
#X text 98 451 recall previous value of master-lvl -->;
#X text 239 482 test if less than 1 -->;
#X text 203 510 if true convert to bang -->;
#X text 218 351 Mute control. If the master level is zero \, restore
to the last nonzero one \, otherwise zero it.;
#X text 182 86 <-- update the number box to show new level;
#X text 178 120 <-- convert from dB to linear units;
#X text 196 150 <-- make a smooth ramp to avoid clicks or zipper noise
;
#X text 333 318 <-- automatically start DSP;
#X connect 0 0 3 0;
#X connect 1 0 6 0;
#X connect 2 0 5 0;
#X connect 3 0 12 0;
#X connect 4 0 12 0;
#X connect 5 0 1 0;
#X connect 6 0 0 0;
#X connect 6 1 7 0;
#X connect 7 0 4 0;
#X connect 8 1 3 1;
#X connect 9 0 22 0;
#X connect 10 0 1 1;
#X connect 10 0 8 0;
#X connect 11 0 9 0;
#X connect 11 0 16 0;
#X connect 13 0 20 0;
#X connect 14 0 15 0;
#X connect 14 0 18 0;
#X connect 16 0 17 0;
#X connect 19 0 20 1;
#X connect 20 0 21 0;
#X connect 20 0 21 1;
#X connect 22 0 19 0;
#X restore 260 406 pd output;
#X obj 243 191 expr 5.-(4.*($i1/128.));
#X floatatom 261 167 5 0 0 0 - - -;
#X obj 301 216 expr 0.027236 + (0.2 *$i1 / 128.);
#X floatatom 324 167 5 0 0 0 - - -;
#X floatatom 324 256 5 0 0 0 - - -;
#X obj 388 191 * 0.01;
#X floatatom 389 256 5 0 0 0 - - -;
#X obj 452 191 / 8;
#X floatatom 452 256 5 0 0 0 - - -;
#X obj 516 191 * 0.001;
#X floatatom 516 256 5 0 0 0 - - -;
#X obj 579 191 mtof;
#X floatatom 580 256 5 0 0 0 - - -;
#X text 9 135 perry cook and gary scavone).;
#X text 9 127 ported from the STK (by;
#X text 7 166 by dan trueman \,;
#X text 6 175 computer music;
#X text 6 184 center \, columbia;
#X text 7 192 university;
#X text 8 6 bowed~;
#X text 8 51 bowed~ models a bowed;
#X text 9 61 stringed instrument. you;
#X text 9 71 control the bow pressure \,;
#X text 8 80 position \, and velocity \, as well;
#X text 9 90 as vibrato frequency \, gain and;
#X text 8 99 the length of the string.;
#X text 8 20 physical model of a bowed;
#X text 8 29 string instrument;
#X obj 261 339 bowed~ _______________________________________________
;
#X msg 309 385 mute;
#X floatatom 388 167 5 0 0 0 - - -;
#X floatatom 452 167 5 0 0 0 - - -;
#X floatatom 516 167 5 0 0 0 - - -;
#X floatatom 579 167 5 0 0 0 - - -;
#X text 267 138 bow;
#X text 266 150 pressure;
#X text 326 140 position;
#X text 388 141 velocity;
#X text 452 140 vibrato;
#X text 451 152 frequency;
#X text 518 141 vibrato;
#X text 517 152 gain;
#X text 579 140 string;
#X text 579 153 length;
#X connect 0 0 1 0;
#X connect 1 0 2 0;
#X connect 2 0 3 0;
#X connect 3 0 8 0;
#X connect 3 1 10 0;
#X connect 3 2 37 0;
#X connect 3 3 38 0;
#X connect 3 4 39 0;
#X connect 3 5 40 0;
#X connect 4 0 35 0;
#X connect 5 0 6 1;
#X connect 6 0 5 0;
#X connect 7 0 4 0;
#X connect 8 0 7 0;
#X connect 9 0 11 0;
#X connect 10 0 9 0;
#X connect 11 0 35 1;
#X connect 12 0 13 0;
#X connect 13 0 35 2;
#X connect 14 0 15 0;
#X connect 15 0 35 3;
#X connect 16 0 17 0;
#X connect 17 0 35 4;
#X connect 18 0 19 0;
#X connect 19 0 35 5;
#X connect 35 0 6 0;
#X connect 36 0 6 2;
#X connect 37 0 12 0;
#X connect 38 0 14 0;
#X connect 39 0 16 0;
#X connect 40 0 18 0;
