#N canvas 321 93 462 312 12;
#X obj 41 52 inlet;
#X obj 41 201 outlet;
#X obj 128 92 + 1;
#X obj 41 91 int 0;
#X obj 56 149 select 0;
#X obj 235 28 loadbang;
#X obj 103 58 float \$1;
#X obj 222 95 float \$2;
#X floatatom 126 202 5 0 0 0 - - -;
#X msg 59 177 bang;
#X connect 0 0 3 0;
#X connect 2 0 3 1;
#X connect 3 0 1 0;
#X connect 3 0 2 0;
#X connect 3 0 4 0;
#X connect 3 0 8 0;
#X connect 4 0 9 0;
#X connect 5 0 6 0;
#X connect 5 0 7 0;
#X connect 6 0 3 1;
#X connect 7 0 4 1;
#X connect 9 0 6 0;
