#N canvas 186 88 688 555 10;
#X text 12 161 computer music;
#X text 12 170 center \, columbia;
#X text 13 178 university;
#X floatatom 330 357 0 0 100 0 - - -;
#N canvas 331 136 786 621 output 0;
#X obj 455 510 t b;
#X obj 455 450 f;
#X obj 455 390 inlet;
#X obj 455 540 f;
#X msg 566 532 0;
#X msg 455 420 bang;
#X obj 455 480 moses 1;
#X obj 566 502 t b f;
#X obj 535 460 moses 1;
#X obj 107 121 dbtorms;
#X obj 535 430 r master-lvl;
#X obj 107 28 r master-lvl;
#X obj 455 570 s master-lvl;
#X obj 36 228 inlet~;
#X obj 250 258 inlet;
#X obj 268 283 s master-lvl;
#X msg 119 57 set \$1;
#X obj 119 87 outlet;
#X msg 250 309 \; pd dsp 1;
#X obj 107 181 line~;
#X obj 36 258 *~;
#X obj 36 288 dac~;
#X obj 107 151 pack 0 50;
#X text 23 205 audio in;
#X text 2 313 out both channels;
#X text 273 182 Level input. Send to master-lvl and start DSP (we infer
that if you're changing the level you want to hear the network.) If
you start DSP when it's already running there's no effect.;
#X text 59 542 here is the previous nonzero master-lvl -->;
#X text 98 451 recall previous value of master-lvl -->;
#X text 239 482 test if less than 1 -->;
#X text 203 510 if true convert to bang -->;
#X text 218 351 Mute control. If the master level is zero \, restore
to the last nonzero one \, otherwise zero it.;
#X text 182 86 <-- update the number box to show new level;
#X text 178 120 <-- convert from dB to linear units;
#X text 196 150 <-- make a smooth ramp to avoid clicks or zipper noise
;
#X text 333 318 <-- automatically start DSP;
#X connect 0 0 3 0;
#X connect 1 0 6 0;
#X connect 2 0 5 0;
#X connect 3 0 12 0;
#X connect 4 0 12 0;
#X connect 5 0 1 0;
#X connect 6 0 0 0;
#X connect 6 1 7 0;
#X connect 7 0 4 0;
#X connect 8 1 3 1;
#X connect 9 0 22 0;
#X connect 10 0 1 1;
#X connect 10 0 8 0;
#X connect 11 0 9 0;
#X connect 11 0 16 0;
#X connect 13 0 20 0;
#X connect 14 0 15 0;
#X connect 14 0 18 0;
#X connect 16 0 17 0;
#X connect 19 0 20 1;
#X connect 20 0 21 0;
#X connect 20 0 21 1;
#X connect 22 0 19 0;
#X restore 306 380 pd output;
#X msg 355 357 mute;
#X text 13 152 by luke dubois \,;
#X text 13 -3 escalator~;
#X text 13 11 signal rounder...;
#X text 14 37 escalator~ takes the incoming;
#X text 15 47 signal and rounds it to the;
#X text 15 57 nearest integer. an argument;
#X text 14 66 or and in in the right outlet;
#X text 15 76 determines the rounding;
#X text 15 85 algorithm (-1 always round;
#X text 15 93 down \, 0 = round normally (>=;
#X text 15 101 0.5 round up \, otherwise;
#X text 15 109 down) \, 1 always round up.;
#X floatatom 305 10 5 0 0 0 - - -;
#X obj 305 29 phasor~ 0.25;
#X obj 305 51 *~ 16;
#X obj 305 72 escalator~ -1;
#X text 400 73 <-- use to turn a ramp into a step sequencer...;
#X obj 305 94 snapshot~ 1;
#X obj 305 118 i;
#N canvas 0 0 450 300 graph2 0;
#X array mycoll 16 float 1;
#A 0 42 50 56 44 48 46 52 54 58 44 46 40 42 60 54 48;
#X coords 0 64 15 36 100 70 1;
#X restore 509 231 graph;
#X obj 305 141 tabread mycoll;
#X obj 305 165 mtof;
#X msg 305 187 \$1 20;
#X obj 305 214 line~;
#X obj 304 283 *~ 5;
#X obj 305 308 escalator~ -1;
#X obj 306 333 *~ 0.2;
#X obj 304 246 osc~;
#X floatatom 369 170 5 0 0 0 - - -;
#X obj 243 55 tgl 15 0 empty empty empty 0 -6 0 8 -262144 -1 -1 1 1
;
#X obj 243 73 metro 20;
#X obj 243 15 loadbang;
#X msg 243 35 1;
#X text 161 223 play around...;
#X floatatom 162 244 5 0 0 0 - - -;
#X floatatom 163 333 5 0 0 0 - - -;
#X msg 207 241 0;
#X msg 234 241 -1;
#X msg 260 241 1;
#X obj 163 289 escalator~ -1;
#X obj 163 311 snapshot~ 1;
#X obj 162 264 sig~;
#X connect 3 0 4 1;
#X connect 4 0 3 0;
#X connect 5 0 4 2;
#X connect 18 0 19 0;
#X connect 19 0 20 0;
#X connect 20 0 21 0;
#X connect 21 0 23 0;
#X connect 23 0 24 0;
#X connect 24 0 26 0;
#X connect 26 0 27 0;
#X connect 26 0 34 0;
#X connect 27 0 28 0;
#X connect 28 0 29 0;
#X connect 29 0 33 0;
#X connect 30 0 31 0;
#X connect 31 0 32 0;
#X connect 32 0 4 0;
#X connect 33 0 30 0;
#X connect 35 0 36 0;
#X connect 36 0 23 0;
#X connect 36 0 46 0;
#X connect 37 0 38 0;
#X connect 38 0 35 0;
#X connect 40 0 47 0;
#X connect 42 0 45 0;
#X connect 43 0 45 0;
#X connect 44 0 45 0;
#X connect 45 0 46 0;
#X connect 46 0 41 0;
#X connect 47 0 45 0;
