#N canvas 196 46 765 539 10;
#X floatatom 244 410 0 0 100 0 - - -;
#N canvas 331 136 786 621 output 0;
#X obj 455 510 t b;
#X obj 455 450 f;
#X obj 455 390 inlet;
#X obj 455 540 f;
#X msg 566 532 0;
#X msg 455 420 bang;
#X obj 455 480 moses 1;
#X obj 566 502 t b f;
#X obj 535 460 moses 1;
#X obj 107 121 dbtorms;
#X obj 535 430 r master-lvl;
#X obj 107 28 r master-lvl;
#X obj 455 570 s master-lvl;
#X obj 36 228 inlet~;
#X obj 250 258 inlet;
#X obj 268 283 s master-lvl;
#X msg 119 57 set \$1;
#X obj 119 87 outlet;
#X msg 250 309 \; pd dsp 1;
#X obj 107 181 line~;
#X obj 36 258 *~;
#X obj 36 288 dac~;
#X obj 107 151 pack 0 50;
#X text 23 205 audio in;
#X text 2 313 out both channels;
#X text 273 182 Level input. Send to master-lvl and start DSP (we infer
that if you're changing the level you want to hear the network.) If
you start DSP when it's already running there's no effect.;
#X text 59 542 here is the previous nonzero master-lvl -->;
#X text 98 451 recall previous value of master-lvl -->;
#X text 239 482 test if less than 1 -->;
#X text 203 510 if true convert to bang -->;
#X text 218 351 Mute control. If the master level is zero \, restore
to the last nonzero one \, otherwise zero it.;
#X text 182 86 <-- update the number box to show new level;
#X text 178 120 <-- convert from dB to linear units;
#X text 196 150 <-- make a smooth ramp to avoid clicks or zipper noise
;
#X text 333 318 <-- automatically start DSP;
#X connect 0 0 3 0;
#X connect 1 0 6 0;
#X connect 2 0 5 0;
#X connect 3 0 12 0;
#X connect 4 0 12 0;
#X connect 5 0 1 0;
#X connect 6 0 0 0;
#X connect 6 1 7 0;
#X connect 7 0 4 0;
#X connect 8 1 3 1;
#X connect 9 0 22 0;
#X connect 10 0 1 1;
#X connect 10 0 8 0;
#X connect 11 0 9 0;
#X connect 11 0 16 0;
#X connect 13 0 20 0;
#X connect 14 0 15 0;
#X connect 14 0 18 0;
#X connect 16 0 17 0;
#X connect 19 0 20 1;
#X connect 20 0 21 0;
#X connect 20 0 21 1;
#X connect 22 0 19 0;
#X restore 220 431 pd output;
#X text 10 186 perry cook and gary scavone).;
#X text 10 178 ported from the STK (by;
#X text 8 217 by dan trueman \,;
#X text 7 226 computer music;
#X text 7 235 center \, columbia;
#X text 8 243 university;
#X msg 269 410 mute;
#X text 8 6 guiro~;
#X text 8 20 guiro model;
#X text 8 51 guiro~ is a physical model of;
#X text 9 61 a guiro. you can control the;
#X text 9 71 number of beads as well as the;
#X text 8 80 resonant frequencies of the;
#X text 9 90 instrument \, scrape position \,;
#X text 8 99 and scrape pressure. as with;
#X text 8 108 all physical models \, the signal;
#X text 9 118 level of the output fluctuates;
#X text 8 127 quite a bit \, so be careful.;
#X obj 382 54 hsl 140 8 0 1 0 0 empty empty empty -2 -6 0 8 -262144
-1 -1 0 1;
#X text 378 33 set the starting scrape position;
#X floatatom 379 67 5 0 0 0 - - -;
#X obj 576 131 loadbang;
#X floatatom 298 186 5 0 0 0 - - -;
#X floatatom 538 186 5 0 0 0 - - -;
#X msg 299 148 81;
#X msg 538 148 95;
#X obj 298 208 mtof;
#X obj 538 207 mtof;
#X floatatom 298 279 5 0 0 0 - - -;
#X floatatom 538 279 5 0 0 0 - - -;
#X floatatom 219 279 5 0 0 0 - - -;
#X text 180 258 number of beads;
#X text 424 175 scrape velocity;
#X floatatom 458 190 5 0 0 0 - - -;
#X obj 458 261 * 1e-006;
#X floatatom 458 280 10 0 0 0 - - -;
#X msg 458 148 8;
#X msg 219 148 25;
#X floatatom 378 279 5 0 0 0 - - -;
#X obj 219 337 guiro~ _______________________________________________
;
#X obj 219 364 *~ 0.0001;
#X obj 219 385 clip~ -1 1;
#X text 268 170 resonant freq 1;
#X text 560 172 resonant freq 2;
#X connect 0 0 1 1;
#X connect 1 0 0 0;
#X connect 8 0 1 2;
#X connect 20 0 22 0;
#X connect 22 0 40 0;
#X connect 23 0 26 0;
#X connect 23 0 27 0;
#X connect 23 0 38 0;
#X connect 23 0 39 0;
#X connect 24 0 28 0;
#X connect 25 0 29 0;
#X connect 26 0 24 0;
#X connect 27 0 25 0;
#X connect 28 0 30 0;
#X connect 29 0 31 0;
#X connect 30 0 41 1;
#X connect 31 0 41 4;
#X connect 32 0 41 0;
#X connect 35 0 36 0;
#X connect 36 0 37 0;
#X connect 37 0 41 3;
#X connect 38 0 35 0;
#X connect 39 0 32 0;
#X connect 40 0 41 2;
#X connect 41 0 42 0;
#X connect 42 0 43 0;
#X connect 43 0 1 0;
