#N canvas 82 99 829 562 10;
#X floatatom 228 448 0 0 100 0 - - -;
#N canvas 331 136 786 621 output 0;
#X obj 455 510 t b;
#X obj 455 450 f;
#X obj 455 390 inlet;
#X obj 455 540 f;
#X msg 566 532 0;
#X msg 455 420 bang;
#X obj 455 480 moses 1;
#X obj 566 502 t b f;
#X obj 535 460 moses 1;
#X obj 107 121 dbtorms;
#X obj 535 430 r master-lvl;
#X obj 107 28 r master-lvl;
#X obj 455 570 s master-lvl;
#X obj 36 228 inlet~;
#X obj 250 258 inlet;
#X obj 268 283 s master-lvl;
#X msg 119 57 set \$1;
#X obj 119 87 outlet;
#X msg 250 309 \; pd dsp 1;
#X obj 107 181 line~;
#X obj 36 258 *~;
#X obj 36 288 dac~;
#X obj 107 151 pack 0 50;
#X text 23 205 audio in;
#X text 2 313 out both channels;
#X text 273 182 Level input. Send to master-lvl and start DSP (we infer
that if you're changing the level you want to hear the network.) If
you start DSP when it's already running there's no effect.;
#X text 59 542 here is the previous nonzero master-lvl -->;
#X text 98 451 recall previous value of master-lvl -->;
#X text 239 482 test if less than 1 -->;
#X text 203 510 if true convert to bang -->;
#X text 218 351 Mute control. If the master level is zero \, restore
to the last nonzero one \, otherwise zero it.;
#X text 182 86 <-- update the number box to show new level;
#X text 178 120 <-- convert from dB to linear units;
#X text 196 150 <-- make a smooth ramp to avoid clicks or zipper noise
;
#X text 333 318 <-- automatically start DSP;
#X connect 0 0 3 0;
#X connect 1 0 6 0;
#X connect 2 0 5 0;
#X connect 3 0 12 0;
#X connect 4 0 12 0;
#X connect 5 0 1 0;
#X connect 6 0 0 0;
#X connect 6 1 7 0;
#X connect 7 0 4 0;
#X connect 8 1 3 1;
#X connect 9 0 22 0;
#X connect 10 0 1 1;
#X connect 10 0 8 0;
#X connect 11 0 9 0;
#X connect 11 0 16 0;
#X connect 13 0 20 0;
#X connect 14 0 15 0;
#X connect 14 0 18 0;
#X connect 16 0 17 0;
#X connect 19 0 20 1;
#X connect 20 0 21 0;
#X connect 20 0 21 1;
#X connect 22 0 19 0;
#X restore 204 471 pd output;
#X obj 203 195 vsl 15 128 0 15 0 0 empty empty empty 0 -8 0 8 -262144
-1 -1 838 1;
#X floatatom 203 350 5 0 0 0 - - -;
#X obj 250 195 vsl 15 128 20 10000 0 0 empty empty empty 0 -8 0 8 -262144
-1 -1 0 1;
#X floatatom 250 350 5 0 0 0 - - -;
#X obj 297 195 vsl 15 128 0 1 0 0 empty empty empty 0 -8 0 8 -262144
-1 -1 12446 1;
#X floatatom 297 350 5 0 0 0 - - -;
#X obj 344 195 vsl 15 128 0 10 0 0 empty empty empty 0 -8 0 8 -262144
-1 -1 3810 1;
#X floatatom 344 350 5 0 0 0 - - -;
#X obj 391 195 vsl 15 128 0 1 0 0 empty empty empty 0 -8 0 8 -262144
-1 -1 0 1;
#X floatatom 391 349 5 0 0 0 - - -;
#X obj 438 195 vsl 15 128 0 1 0 0 empty empty empty 0 -8 0 8 -262144
-1 -1 12700 1;
#X floatatom 438 347 5 0 0 0 - - -;
#X obj 550 129 hdl 15 1 0 3 empty empty empty 0 -6 0 8 -262144 -1 -1
0;
#X text 495 112 try these presets;
#X obj 550 78 loadbang;
#X msg 550 98 0;
#X msg 253 448 mute;
#X obj 502 143 int;
#X text 340 172 freq;
#X text 21 202 perry cook and gary scavone).;
#X text 21 194 ported from the STK (by;
#X text 19 233 by dan trueman \,;
#X text 18 242 computer music;
#X text 18 251 center \, columbia;
#X text 19 259 university;
#N canvas 605 335 543 346 mypresets 1;
#X obj 2 2 inlet;
#X obj 2 231 outlet;
#X obj 40 231 outlet;
#X obj 78 231 outlet;
#X obj 116 231 outlet;
#X obj 154 231 outlet;
#X obj 192 231 outlet;
#X obj 2 21 sel 0 1 2;
#X obj 2 205 unpack 0 0 0 0 0 0;
#X msg 2 40 0.99 0.86 0.98 3 0 987.767;
#X msg 18 60 0.99 0.86 0.98 4.88 0.99 391.995;
#X msg 34 79 0.99 0.86 0.99 33 0.99 116.541;
#X connect 0 0 7 0;
#X connect 7 0 9 0;
#X connect 7 1 10 0;
#X connect 7 2 11 0;
#X connect 8 0 1 0;
#X connect 8 1 2 0;
#X connect 8 2 3 0;
#X connect 8 3 4 0;
#X connect 8 4 5 0;
#X connect 8 5 6 0;
#X connect 9 0 8 0;
#X connect 10 0 8 0;
#X connect 11 0 8 0;
#X restore 502 176 pd mypresets;
#X text 13 -3 bamboo~;
#X text 13 12 bamboo wind chime model;
#X text 14 37 bamboo~models bamboo wind;
#X text 14 46 chimes... you can control the;
#X text 14 55 number and resonant frequency;
#X text 14 64 of the chimes as well as other;
#X text 14 73 resonance parameters. the;
#X text 14 82 wind energy controls the;
#X text 14 91 amount of collision among the;
#X text 14 100 chimes. the amount of damping;
#X text 14 109 on the chimes will cause a;
#X text 14 118 large fluctuation in the level of;
#X text 14 127 the signal output \, so be careful.;
#X text 185 165 number of;
#X text 193 179 chimes;
#X text 233 174 frequency;
#X msg 81 380 bang;
#X text 50 365 zero delay lines;
#X text 287 165 damping;
#X obj 493 14 hsl 128 9 0 1 0 0 empty empty empty -2 -6 0 8 -262144
-1 -1 0 1;
#X text 627 10 amount of damping (0 - 1);
#X obj 493 30 hsl 128 9 0 1 0 0 empty empty empty -2 -6 0 8 -262144
-1 -1 0 1;
#X obj 493 46 hsl 128 9 0 1 0 0 empty empty empty -2 -6 0 8 -262144
-1 -1 0 1;
#X text 627 26 resonant spread of chimes (0 - 1);
#X text 627 42 random resonance (0 - 1);
#X obj 346 45 tgl 15 0 empty empty empty 0 -6 0 8 -262144 -1 -1 0 1
;
#X obj 346 90 random 50;
#X obj 346 112 * 0.01;
#X obj 250 90 random 60;
#X obj 250 112 + 60;
#X obj 250 133 mtof;
#X floatatom 456 9 5 0 0 0 - - -;
#X floatatom 456 25 5 0 0 0 - - -;
#X floatatom 456 41 5 0 0 0 - - -;
#X text 331 160 resonant;
#X text 381 166 resonant;
#X text 383 178 spread;
#X text 433 159 random;
#X text 429 178 resonance;
#X obj 203 397 bamboo~ ________________________________;
#X text 200 18 random wind energy and randomly choose;
#X text 201 30 resonant frequency of chimes...;
#X obj 415 122 bng 15 250 50 0 empty empty empty 0 -6 0 8 -262144 -1
-1;
#X obj 346 68 metro 200;
#X connect 0 0 1 1;
#X connect 1 0 0 0;
#X connect 2 0 3 0;
#X connect 3 0 67 0;
#X connect 4 0 5 0;
#X connect 5 0 67 1;
#X connect 6 0 7 0;
#X connect 7 0 67 2;
#X connect 8 0 9 0;
#X connect 9 0 67 3;
#X connect 10 0 11 0;
#X connect 11 0 67 4;
#X connect 12 0 13 0;
#X connect 13 0 67 5;
#X connect 14 0 19 0;
#X connect 16 0 17 0;
#X connect 17 0 14 0;
#X connect 18 0 1 2;
#X connect 19 0 27 0;
#X connect 27 0 2 0;
#X connect 27 1 4 0;
#X connect 27 2 6 0;
#X connect 27 3 8 0;
#X connect 27 4 10 0;
#X connect 27 5 12 0;
#X connect 44 0 67 0;
#X connect 47 0 59 0;
#X connect 47 0 6 0;
#X connect 49 0 60 0;
#X connect 49 0 10 0;
#X connect 50 0 61 0;
#X connect 50 0 12 0;
#X connect 53 0 71 0;
#X connect 54 0 55 0;
#X connect 55 0 8 0;
#X connect 56 0 57 0;
#X connect 57 0 58 0;
#X connect 58 0 4 0;
#X connect 67 0 1 0;
#X connect 71 0 54 0;
#X connect 71 0 56 0;
#X connect 71 0 70 0;
