#N canvas 0 0 924 597 10;
#X text 23 108 computer music;
#X text 23 117 center \, columbia;
#X text 24 125 university;
#X floatatom 278 511 0 0 100 0 - - -;
#N canvas 331 136 786 621 output 0;
#X obj 455 510 t b;
#X obj 455 450 f;
#X obj 455 390 inlet;
#X obj 455 540 f;
#X msg 566 532 0;
#X msg 455 420 bang;
#X obj 455 480 moses 1;
#X obj 566 502 t b f;
#X obj 535 460 moses 1;
#X obj 107 121 dbtorms;
#X obj 535 430 r master-lvl;
#X obj 107 28 r master-lvl;
#X obj 455 570 s master-lvl;
#X obj 36 228 inlet~;
#X obj 250 258 inlet;
#X obj 268 283 s master-lvl;
#X msg 119 57 set \$1;
#X obj 119 87 outlet;
#X msg 250 309 \; pd dsp 1;
#X obj 107 181 line~;
#X obj 36 258 *~;
#X obj 36 288 dac~;
#X obj 107 151 pack 0 50;
#X text 23 205 audio in;
#X text 2 313 out both channels;
#X text 273 182 Level input. Send to master-lvl and start DSP (we infer
that if you're changing the level you want to hear the network.) If
you start DSP when it's already running there's no effect.;
#X text 59 542 here is the previous nonzero master-lvl -->;
#X text 98 451 recall previous value of master-lvl -->;
#X text 239 482 test if less than 1 -->;
#X text 203 510 if true convert to bang -->;
#X text 218 351 Mute control. If the master level is zero \, restore
to the last nonzero one \, otherwise zero it.;
#X text 182 86 <-- update the number box to show new level;
#X text 178 120 <-- convert from dB to linear units;
#X text 196 150 <-- make a smooth ramp to avoid clicks or zipper noise
;
#X text 333 318 <-- automatically start DSP;
#X connect 0 0 3 0;
#X connect 1 0 6 0;
#X connect 2 0 5 0;
#X connect 3 0 12 0;
#X connect 4 0 12 0;
#X connect 5 0 1 0;
#X connect 6 0 0 0;
#X connect 6 1 7 0;
#X connect 7 0 4 0;
#X connect 8 1 3 1;
#X connect 9 0 22 0;
#X connect 10 0 1 1;
#X connect 10 0 8 0;
#X connect 11 0 9 0;
#X connect 11 0 16 0;
#X connect 13 0 20 0;
#X connect 14 0 15 0;
#X connect 14 0 18 0;
#X connect 16 0 17 0;
#X connect 19 0 20 1;
#X connect 20 0 21 0;
#X connect 20 0 21 1;
#X connect 22 0 19 0;
#X restore 254 534 pd output;
#X msg 306 512 mute;
#X obj 26 400 vu 15 120 empty empty -1 -8 0 8 -66577 -1 1 0;
#X obj 157 346 metro 50;
#X obj 25 363 snapshot~;
#X floatatom 87 392 9 0 0 0 - - -;
#X obj 160 327 tgl 15 0 empty empty empty 0 -6 0 8 -262144 -1 -1 1
1;
#X obj 25 282 random~ 65536;
#X msg 25 260 range \$1;
#X floatatom 25 239 8 0 0 0 - - -;
#X obj 28 215 hsl 128 15 0 10 0 0 empty empty empty -2 -6 0 8 -262144
-1 -1 0 1;
#X text 8 6 random~;
#X text 8 20 audio rate random number generator;
#X text 11 51 random~ outputs random number in a;
#X text 8 62 fixed range (between 0 and its argument);
#X text 9 71 at audio rate. the message 'range n';
#X text 8 79 changes the upper range;
#X text 24 99 by r. luke dubois \,;
#X obj 26 332 -~;
#X obj 108 282 *~ 0.5;
#X floatatom 359 57 5 0 0 0 - - -;
#X text 358 35 density of the 'rain'...;
#X msg 359 76 range \$1;
#X obj 285 17 loadbang;
#X msg 285 39 1000;
#X obj 359 99 random~ 4000;
#X obj 359 124 escalator~ -1;
#X obj 359 161 ==~ 0;
#X obj 540 66 tgl 15 0 empty empty empty 0 -6 0 8 -262144 -1 -1 0 1
;
#X obj 540 88 metro 250;
#X text 567 66 start varying the comb filters;
#N canvas 0 0 659 341 combdelays 0;
#X obj 83 6 inlet;
#X obj 83 30 random 30;
#X obj 83 53 + 40;
#X floatatom 83 126 5 0 0 0 - - -;
#X floatatom 181 125 5 0 0 0 - - -;
#X floatatom 279 125 5 0 0 0 - - -;
#X floatatom 378 125 5 0 0 0 - - -;
#X obj 117 251 outlet~;
#N canvas 483 273 452 302 bucket4 1;
#X obj 71 40 inlet;
#X obj 71 107 i;
#X floatatom 71 70 5 0 0 0 - - -;
#X floatatom 71 146 5 0 0 0 - - -;
#X obj 111 107 i;
#X obj 111 88 bng 15 250 50 0 empty empty empty 0 -6 0 8 -262144 -1
-1;
#X floatatom 111 146 5 0 0 0 - - -;
#X obj 151 107 i;
#X obj 151 88 bng 15 250 50 0 empty empty empty 0 -6 0 8 -262144 -1
-1;
#X floatatom 151 146 5 0 0 0 - - -;
#X obj 191 106 i;
#X obj 191 87 bng 15 250 50 0 empty empty empty 0 -6 0 8 -262144 -1
-1;
#X floatatom 191 145 5 0 0 0 - - -;
#X obj 71 183 outlet;
#X obj 111 183 outlet;
#X obj 151 183 outlet;
#X obj 191 183 outlet;
#X connect 0 0 2 0;
#X connect 1 0 3 0;
#X connect 1 0 4 1;
#X connect 2 0 11 0;
#X connect 2 0 8 0;
#X connect 2 0 5 0;
#X connect 2 0 1 0;
#X connect 3 0 13 0;
#X connect 4 0 6 0;
#X connect 4 0 7 1;
#X connect 5 0 4 0;
#X connect 6 0 14 0;
#X connect 7 0 9 0;
#X connect 7 0 10 1;
#X connect 8 0 7 0;
#X connect 9 0 15 0;
#X connect 10 0 12 0;
#X connect 11 0 10 0;
#X connect 12 0 16 0;
#X restore 83 91 pd bucket4 _______________________________________
;
#X floatatom 83 252 5 0 0 0 - - -;
#X obj 83 231 / 44;
#X obj 215 252 outlet~;
#X floatatom 181 253 5 0 0 0 - - -;
#X obj 181 232 / 44;
#X obj 313 252 outlet~;
#X floatatom 279 253 5 0 0 0 - - -;
#X obj 279 232 / 44;
#X obj 412 253 outlet~;
#X floatatom 378 254 5 0 0 0 - - -;
#X obj 378 233 / 44;
#X obj 83 189 expr 44100/$f1;
#X obj 83 151 mtof;
#X obj 181 150 mtof;
#X obj 279 151 mtof;
#X obj 378 150 mtof;
#X obj 181 191 expr 44100/$f1;
#X obj 279 190 expr 44100/$f1;
#X obj 378 191 expr 44100/$f1;
#X connect 0 0 1 0;
#X connect 1 0 2 0;
#X connect 2 0 8 0;
#X connect 3 0 21 0;
#X connect 4 0 22 0;
#X connect 5 0 23 0;
#X connect 6 0 24 0;
#X connect 8 0 3 0;
#X connect 8 1 4 0;
#X connect 8 2 5 0;
#X connect 8 3 6 0;
#X connect 10 0 9 0;
#X connect 10 0 7 0;
#X connect 13 0 12 0;
#X connect 13 0 11 0;
#X connect 16 0 15 0;
#X connect 16 0 14 0;
#X connect 19 0 18 0;
#X connect 19 0 17 0;
#X connect 20 0 10 0;
#X connect 21 0 20 0;
#X connect 22 0 25 0;
#X connect 23 0 26 0;
#X connect 24 0 27 0;
#X connect 25 0 13 0;
#X connect 26 0 16 0;
#X connect 27 0 19 0;
#X restore 540 116 pd combdelays;
#X obj 359 209 comb~ 1000 1 0.1 0 0.9;
#X obj 495 209 comb~ 1000 1 0.1 0 0.9;
#X obj 631 209 comb~ 1000 1 0.1 0 0.9;
#X obj 767 209 comb~ 1000 1 0.1 0 0.9;
#X obj 494 162 ==~ 1;
#X obj 632 162 ==~ 2;
#X obj 767 161 ==~ 3;
#X obj 358 298 throw~ rain;
#X obj 254 489 catch~ rain;
#X obj 424 358 delwrite~ del1;
#X obj 424 384 delread~ del1 200;
#X obj 424 407 *~ 0.74;
#X obj 533 407 *~ 0.74;
#X obj 643 407 *~ 0.74;
#X obj 752 407 *~ 0.74;
#X obj 534 357 delwrite~ del2;
#X obj 641 358 delwrite~ del3;
#X obj 752 358 delwrite~ del4;
#X obj 752 384 delread~ del4 50;
#X obj 643 384 delread~ del3 75;
#X obj 533 384 delread~ del2 150;
#X obj 358 185 +~;
#X obj 495 186 +~;
#X obj 631 187 +~;
#X obj 768 186 +~;
#X connect 3 0 4 1;
#X connect 4 0 3 0;
#X connect 5 0 4 2;
#X connect 7 0 8 0;
#X connect 8 0 6 0;
#X connect 8 0 9 0;
#X connect 10 0 7 0;
#X connect 11 0 22 0;
#X connect 12 0 11 0;
#X connect 13 0 12 0;
#X connect 13 0 23 0;
#X connect 14 0 13 0;
#X connect 22 0 8 0;
#X connect 23 0 22 1;
#X connect 24 0 26 0;
#X connect 26 0 29 0;
#X connect 27 0 28 0;
#X connect 28 0 24 0;
#X connect 29 0 30 0;
#X connect 30 0 31 0;
#X connect 30 0 40 0;
#X connect 30 0 41 0;
#X connect 30 0 42 0;
#X connect 31 0 57 0;
#X connect 32 0 33 0;
#X connect 33 0 35 0;
#X connect 35 0 36 1;
#X connect 35 1 37 1;
#X connect 35 2 38 1;
#X connect 35 3 39 1;
#X connect 36 0 43 0;
#X connect 36 0 45 0;
#X connect 37 0 43 0;
#X connect 37 0 51 0;
#X connect 38 0 43 0;
#X connect 38 0 52 0;
#X connect 39 0 43 0;
#X connect 39 0 53 0;
#X connect 40 0 58 0;
#X connect 41 0 59 0;
#X connect 42 0 60 0;
#X connect 44 0 4 0;
#X connect 46 0 47 0;
#X connect 47 0 58 1;
#X connect 48 0 59 1;
#X connect 49 0 60 1;
#X connect 50 0 57 1;
#X connect 54 0 50 0;
#X connect 55 0 49 0;
#X connect 56 0 48 0;
#X connect 57 0 36 0;
#X connect 58 0 37 0;
#X connect 59 0 38 0;
#X connect 60 0 39 0;
