#N canvas 394 115 456 424 10;
#X obj 22 234 gen20 512 0;
#X obj 22 270 unpack f f;
#X floatatom 22 308 5 0 0;
#X floatatom 77 309 5 0 0;
#N canvas 0 0 450 300 graph1 0;
#X array random 100 float 0;
#X coords 0 1 99 -1 200 140 1;
#X restore 237 252 graph;
#X obj 21 361 tabwrite random;
#X msg 22 26 0;
#X msg 30 51 1;
#X msg 41 74 2;
#X msg 51 100 3;
#X msg 62 124 4;
#X msg 71 150 5;
#X text 55 25 even distribution;
#X text 60 48 low weighted;
#X text 69 71 high weighted;
#X text 79 100 triangle;
#X text 90 125 gaussian;
#X text 100 149 cauchy;
#X msg 89 177 size 512;
#X msg 99 202 offset 0;
#X text 98 233 gen20 <buffersize> <offset>;
#X text 97 3 gen20 (from RTCmix) - random number generator;
#X connect 0 0 1 0;
#X connect 1 0 2 0;
#X connect 1 1 3 0;
#X connect 2 0 5 1;
#X connect 3 0 5 0;
#X connect 6 0 0 0;
#X connect 7 0 0 0;
#X connect 8 0 0 0;
#X connect 9 0 0 0;
#X connect 10 0 0 0;
#X connect 11 0 0 0;
#X connect 18 0 0 0;
#X connect 19 0 0 0;
