#N canvas 584 38 680 464 10;
#X text 17 198 computer music;
#X text 17 207 center \, columbia;
#X text 18 215 university;
#X text 18 189 by r. luke dubois \,;
#X text 12 2 klutz~;
#X obj 343 244 klutz~;
#X text 12 16 reverses sample in a vector block;
#X text 13 42 klutz~ reverses the order of;
#X text 12 53 samples in a signal vector.;
#X text 12 63 conceivably this could sound;
#X text 12 72 sort of interesting.;
#X obj 343 211 osc~ 200;
#X obj 343 314 dac~;
#X connect 5 0 12 0;
#X connect 5 0 12 1;
#X connect 11 0 5 0;
