#N canvas 0 0 781 605 10;
#X text 7 5 gen 5;
#X text 7 31 exponential b.p.f wavetable generator;
#X obj 107 224 t b l;
#X obj 107 185 r timb;
#X obj 455 68 loadbang;
#X msg 455 104 0.01 4096 1 2048 0.01 2048 0.01;
#X obj 455 182 s timb;
#X obj 354 154 tgl 15 0 empty empty empty 0 -6 0 8 -262144 -1 -1 1
1;
#X obj 354 184 metro 125;
#X obj 354 210 counter 1 16;
#X floatatom 381 236 5 0 0 0 - - -;
#X obj 354 254 t i b;
#N canvas 0 0 450 300 graph1 0;
#X array mycoll 16 float 1;
#A 0 60 63 67 65 58 56 48 46 55 60 68 67 63 65 58 67;
#X coords 0 72 15 42 100 70 1;
#X restore 535 309 graph;
#X obj 354 308 mtof;
#X obj 354 281 tabread mycoll;
#X obj 354 335 osc~;
#X msg 398 309 0 \, 8191 150;
#X obj 398 334 line~;
#X obj 355 402 *~ 0.99;
#X floatatom 133 320 5 0 0 0 - - -;
#X floatatom 189 320 10 0 0 0 - - -;
#X obj 132 287 unpack f f;
#N canvas 0 0 450 300 graph2 0;
#X array wavetable 8192 float 0;
#X coords 0 1 8191 -1 100 70 1;
#X restore 151 405 graph;
#X obj 131 346 tabwrite wavetable;
#X obj 132 258 gen5 8192 0;
#X floatatom 380 437 0 0 100 0 - - -;
#N canvas 331 136 786 621 output 0;
#X obj 455 510 t b;
#X obj 455 450 f;
#X obj 455 390 inlet;
#X obj 455 540 f;
#X msg 566 532 0;
#X msg 455 420 bang;
#X obj 455 480 moses 1;
#X obj 566 502 t b f;
#X obj 535 460 moses 1;
#X obj 107 121 dbtorms;
#X obj 535 430 r master-lvl;
#X obj 107 28 r master-lvl;
#X obj 455 570 s master-lvl;
#X obj 36 228 inlet~;
#X obj 250 258 inlet;
#X obj 268 283 s master-lvl;
#X msg 119 57 set \$1;
#X obj 119 87 outlet;
#X msg 250 309 \; pd dsp 1;
#X obj 107 181 line~;
#X obj 36 258 *~;
#X obj 36 288 dac~;
#X obj 107 151 pack 0 50;
#X text 23 205 audio in;
#X text 2 313 out both channels;
#X text 273 182 Level input. Send to master-lvl and start DSP (we infer
that if you're changing the level you want to hear the network.) If
you start DSP when it's already running there's no effect.;
#X text 59 542 here is the previous nonzero master-lvl -->;
#X text 98 451 recall previous value of master-lvl -->;
#X text 239 482 test if less than 1 -->;
#X text 203 510 if true convert to bang -->;
#X text 218 351 Mute control. If the master level is zero \, restore
to the last nonzero one \, otherwise zero it.;
#X text 182 86 <-- update the number box to show new level;
#X text 178 120 <-- convert from dB to linear units;
#X text 196 150 <-- make a smooth ramp to avoid clicks or zipper noise
;
#X text 333 318 <-- automatically start DSP;
#X connect 0 0 3 0;
#X connect 1 0 6 0;
#X connect 2 0 5 0;
#X connect 3 0 12 0;
#X connect 4 0 12 0;
#X connect 5 0 1 0;
#X connect 6 0 0 0;
#X connect 6 1 7 0;
#X connect 7 0 4 0;
#X connect 8 1 3 1;
#X connect 9 0 22 0;
#X connect 10 0 1 1;
#X connect 10 0 8 0;
#X connect 11 0 9 0;
#X connect 11 0 16 0;
#X connect 13 0 20 0;
#X connect 14 0 15 0;
#X connect 14 0 18 0;
#X connect 16 0 17 0;
#X connect 19 0 20 1;
#X connect 20 0 21 0;
#X connect 20 0 21 1;
#X connect 22 0 19 0;
#X restore 356 459 pd output;
#X msg 405 436 mute;
#X obj 397 362 tabread~ wavetable;
#X msg 465 123 0.01 2048 1 2048 0.8 2048 0.2 2048 0.01;
#X msg 472 143 0.01 1024 0.5 1024 0.3 1024 0.9 4096 0.01 1024 0.01
;
#X text 12 70 gen5 -- give it a list of amplitudes;
#X text 12 81 interspersed with a number of points (in;
#X text 13 92 array numbers) between values and it;
#X text 13 103 will generate the function in time/;
#X text 13 114 amplitude pairs using an exponential;
#X text 14 125 interpolation.;
#X text 13 147 ported from real-time cmix \, by brad;
#X text 14 158 garton and dave topper;
#X text 506 165 list of amplitudes and distances for;
#X text 506 176 breakpoint function (total distances;
#X text 507 187 shouldn't exceed the size of the;
#X text 507 197 table.) never use a target time of;
#X text 507 209 0 \, as you can't exponentially;
#X text 508 220 interpolate to 0 correctly.;
#X text 513 413 by r. luke dubois \,;
#X text 513 426 computer music;
#X text 513 451 computer music;
#X text 513 438 center \, columbia;
#X connect 2 1 24 0;
#X connect 3 0 2 0;
#X connect 4 0 5 0;
#X connect 5 0 6 0;
#X connect 7 0 8 0;
#X connect 8 0 9 0;
#X connect 9 0 10 0;
#X connect 9 0 11 0;
#X connect 11 0 14 0;
#X connect 11 1 16 0;
#X connect 13 0 15 0;
#X connect 14 0 13 0;
#X connect 15 0 18 0;
#X connect 16 0 17 0;
#X connect 17 0 28 0;
#X connect 18 0 26 0;
#X connect 19 0 23 1;
#X connect 20 0 23 0;
#X connect 21 0 19 0;
#X connect 21 1 20 0;
#X connect 24 0 21 0;
#X connect 25 0 26 1;
#X connect 26 0 25 0;
#X connect 27 0 26 2;
#X connect 28 0 18 1;
#X connect 29 0 6 0;
#X connect 30 0 6 0;
