#N canvas 473 81 742 627 10;
#X text 24 -29 computer music;
#X text 24 -20 center \, columbia;
#X text 25 -12 university;
#X floatatom 303 342 0 0 100 0 - - - 0;
#X msg 328 342 mute;
#X text 25 -38 by r. luke dubois \,;
#X text 8 -191 weave~;
#X text 8 -177 variable duty-cycle subharmonic oscillator;
#X text 8 -144 weave~ -- an input signal is tracked for;
#X text 8 -135 zero crossings. the zero crossings are counted;
#X text 8 -118 the length of the positive and negative sides;
#X text 8 -110 of the duty cycle you get different;
#X text 8 -101 subharmonics of the original signal.;
#X text 8 -126 and used to synthesize a -1 or 1 based on;
#X text 8 -86 inspired by the Boss octave guitar pedal \,;
#X text 8 -78 which sucks in a similar way.;
#X obj 375 -128 tgl 15 0 empty empty empty 0 -6 0 8 #fcfcfc #000000 #000000 0 1;
#X obj 375 -108 metro 125;
#X obj 375 -66 tabread mycoll;
#N canvas 0 0 450 300 (subpatch) 0;
#X array mycoll 12 float 1;
#A 0 70 73 79 72 75 73 68 70 79 80 85 82;
#X coords 0 90 11 60 100 70 1;
#X restore 469 -66 graph;
#X obj 375 -44 mtof;
#X msg 375 -22 \$1 20;
#X obj 375 0 line~;
#X obj 375 24 osc~ 200;
#X obj 452 24 adc~;
#X obj 314 153 weave~ 2 2;
#X floatatom 341 127 5 0 0 0 - - - 0;
#X floatatom 377 127 5 0 0 0 - - - 0;
#X obj 300 210 vsl 9 80 0 1 0 0 empty empty empty 0 -8 0 8 #fcfcfc #000000 #000000 0 1;
#X obj 281 296 *~ 1;
#X obj 280 342 +~;
#X obj 332 209 vsl 9 80 0 1 0 0 empty empty empty 0 -8 0 8 #fcfcfc #000000 #000000 0 1;
#X obj 313 296 *~ 1;
#X text 295 193 dry;
#X text 327 192 wet;
#X msg 257 44 1;
#X msg 285 44 2;
#N canvas 0 0 475 364 choose 0;
#X obj 78 50 inlet;
#X msg 108 122 1 0 0;
#X msg 114 143 0 1 0;
#X obj 240 52 inlet~;
#X obj 297 52 inlet~;
#X obj 240 223 *~ 0;
#X obj 303 221 *~ 0;
#X obj 280 289 +~;
#X obj 287 331 outlet~;
#X floatatom 121 223 5 0 0 0 - - - 0;
#X floatatom 156 221 5 0 0 0 - - - 0;
#X obj 94 93 sel 1 2;
#X obj 138 188 unpack 0 0;
#X connect 0 0 11 0;
#X connect 1 0 12 0;
#X connect 2 0 12 0;
#X connect 3 0 5 0;
#X connect 4 0 6 0;
#X connect 5 0 7 0;
#X connect 6 0 7 1;
#X connect 7 0 8 0;
#X connect 11 0 1 0;
#X connect 11 1 2 0;
#X connect 12 0 5 1;
#X connect 12 0 9 0;
#X connect 12 1 6 1;
#X connect 12 1 10 0;
#X restore 280 85 pd choose;
#X obj 257 22 loadbang;
#X text 497 23 plug an instrument in. you;
#X text 498 35 might want to keep it monophonic;
#X text 455 155 arguments are number of zero crossings;
#X text 455 164 to count low and high \, respectively \,;
#X text 455 173 before driving the pwm the other way.;
#X text 455 182 these correspond to the ints that you;
#X text 455 191 send to the inlets;
#X obj 279 364 dac~;
#X obj 375 -87 cyclone/counter 0 11;
#X connect 3 0 46 1;
#X connect 16 0 17 0;
#X connect 17 0 47 0;
#X connect 18 0 20 0;
#X connect 20 0 21 0;
#X connect 21 0 22 0;
#X connect 22 0 23 0;
#X connect 23 0 37 1;
#X connect 24 0 37 2;
#X connect 25 0 32 0;
#X connect 26 0 25 0;
#X connect 27 0 25 1;
#X connect 28 0 29 1;
#X connect 29 0 30 0;
#X connect 30 0 46 0;
#X connect 31 0 32 1;
#X connect 32 0 30 1;
#X connect 35 0 37 0;
#X connect 36 0 37 0;
#X connect 37 0 25 0;
#X connect 37 0 29 0;
#X connect 38 0 35 0;
#X connect 47 0 18 0;
