#N canvas 0 0 791 547 10;
#X obj 24 20 hsl 128 15 36 107 0 0 empty empty empty -2 -6 0 8 -262144
-1 -1 0 1;
#X text 25 2 midi pitches;
#X obj 54 55 mtof;
#X text 396 21 blotar~;
#X text 394 30 flute-guitar hybrid model;
#X text 433 41 blotar~ is an example of what you can do with the synthesis
toolkit. Its parameters morph between an electric guitar model and
a flute.;
#X obj 21 59 bng 15 250 50 0 empty empty empty 0 -6 0 8 -262144 -1
-1;
#X obj 21 384 blotar~ ___________________________________________________________
;
#X floatatom 42 318 5 0 0 0 - - -;
#X floatatom 88 317 5 0 0 0 - - -;
#X floatatom 140 319 5 0 0 0 - - -;
#X floatatom 192 320 5 0 0 0 - - -;
#X floatatom 255 320 5 0 0 0 - - -;
#X floatatom 316 320 5 0 0 0 - - -;
#X floatatom 372 321 5 0 0 0 - - -;
#X floatatom 423 321 5 0 0 0 - - -;
#X floatatom 475 320 5 0 0 0 - - -;
#X floatatom 533 320 5 0 0 0 - - -;
#X floatatom 586 320 5 0 0 0 - - -;
#X floatatom 652 321 5 0 0 0 - - -;
#X text 433 123 by dan trueman \, computer music center \, columbia
university;
#X text 44 289 pluck amp;
#X text 85 287 pluck position;
#X text 142 289 body size;
#X text 193 288 breath pressure;
#X text 257 277 jet/ feedback frequency;
#X text 317 292 noise gain;
#X text 375 289 vib fr;
#X text 428 291 vib amp;
#X text 477 279 flute/ string freq;
#X text 532 279 jet/ feedback coeff;
#X text 586 278 bore/ distortion gain;
#X text 652 277 friggin' filter ratio;
#X text 701 277 (interpolates between the one- pole filter of the flute
and the lowpass filter of the plucked string. nutty.);
#X obj 260 245 spigot;
#X obj 290 224 tgl 15 0 empty empty empty 0 -6 0 8 -262144 -1 -1 0
1;
#X msg 45 108 clear;
#X floatatom 54 135 5 0 0 0 - - -;
#X msg 54 158 mic \$1;
#X obj 210 21 hdl 15 1 0 10 empty empty empty 0 -6 0 8 -262144 -1 -1
0;
#X text 212 1 try these presets;
#N canvas 389 265 535 338 mypresets 1;
#X obj 2 2 inlet;
#X obj 16 266 unpack 0 0 0 0 0 0 0 0 0 0 0 0;
#X obj 17 299 outlet;
#X obj 55 299 outlet;
#X obj 93 299 outlet;
#X obj 131 299 outlet;
#X obj 169 299 outlet;
#X obj 207 299 outlet;
#X obj 246 299 outlet;
#X obj 284 299 outlet;
#X obj 322 299 outlet;
#X obj 360 299 outlet;
#X obj 398 299 outlet;
#X obj 436 299 outlet;
#X msg 2 47 0 0.78 0.31 1.06 917.7 0.13 5 0.06 293.66 0.49 0.17 1;
#X obj 2 21 sel 0 1 2 3 4 5 6 7 8 9;
#X msg 15 67 3 0.64 1.63 0 232 0 0 0 523.25 0.06 0.99 1;
#X msg 32 87 2 0.22 0.55 0.83 132 0 0 0 349.23 0.63 0.95 1;
#X msg 45 107 3 0.64 1.63 0.82 1635.2 0 8 0.1 523.25 0.06 0.99 1;
#X msg 66 128 5 0.78 0.37 0 306.25 0 0 0 97.999 0 3.41 1;
#X msg 79 148 9 0.78 0.31 1.06 42 0.13 5 0.06 123.47 109 3.31 -1;
#X msg 96 168 9 0.78 0.31 1.06 42 0.13 5 0.06 196 109 3.31 0.02;
#X msg 109 188 78 0.78 0.06 1.53 42 0.13 5 47 97.999 109 3.31 0.02
;
#X msg 125 207 2 0.22 0.55 0.83 1635.2 0 0 0 523.25 0.63 0.95 1;
#X msg 136 227 3 0.64 1.63 0 3270.3 0 0 0 1046.5 0 2 0;
#X connect 0 0 15 0;
#X connect 1 0 2 0;
#X connect 1 1 3 0;
#X connect 1 2 4 0;
#X connect 1 3 5 0;
#X connect 1 4 6 0;
#X connect 1 5 7 0;
#X connect 1 6 8 0;
#X connect 1 7 9 0;
#X connect 1 8 10 0;
#X connect 1 9 11 0;
#X connect 1 10 12 0;
#X connect 1 11 13 0;
#X connect 14 0 1 0;
#X connect 15 0 14 0;
#X connect 15 1 16 0;
#X connect 15 2 17 0;
#X connect 15 3 18 0;
#X connect 15 4 19 0;
#X connect 15 5 20 0;
#X connect 15 6 21 0;
#X connect 15 7 22 0;
#X connect 15 8 23 0;
#X connect 15 9 24 0;
#X connect 16 0 1 0;
#X connect 17 0 1 0;
#X connect 18 0 1 0;
#X connect 19 0 1 0;
#X connect 20 0 1 0;
#X connect 21 0 1 0;
#X connect 22 0 1 0;
#X connect 23 0 1 0;
#X connect 24 0 1 0;
#X restore 249 48 pd mypresets _______________;
#X floatatom 66 428 0 0 100 0 - - -;
#N canvas 331 136 786 621 output 0;
#X obj 455 510 t b;
#X obj 455 450 f;
#X obj 455 390 inlet;
#X obj 455 540 f;
#X msg 566 532 0;
#X msg 455 420 bang;
#X obj 455 480 moses 1;
#X obj 566 502 t b f;
#X obj 535 460 moses 1;
#X obj 107 121 dbtorms;
#X obj 535 430 r master-lvl;
#X obj 107 28 r master-lvl;
#X obj 455 570 s master-lvl;
#X obj 36 228 inlet~;
#X obj 250 258 inlet;
#X obj 268 283 s master-lvl;
#X msg 119 57 set \$1;
#X obj 119 87 outlet;
#X msg 250 309 \; pd dsp 1;
#X obj 107 181 line~;
#X obj 36 258 *~;
#X obj 36 288 dac~;
#X obj 107 151 pack 0 50;
#X text 23 205 audio in;
#X text 2 313 out both channels;
#X text 273 182 Level input. Send to master-lvl and start DSP (we infer
that if you're changing the level you want to hear the network.) If
you start DSP when it's already running there's no effect.;
#X text 59 542 here is the previous nonzero master-lvl -->;
#X text 98 451 recall previous value of master-lvl -->;
#X text 239 482 test if less than 1 -->;
#X text 203 510 if true convert to bang -->;
#X text 218 351 Mute control. If the master level is zero \, restore
to the last nonzero one \, otherwise zero it.;
#X text 182 86 <-- update the number box to show new level;
#X text 178 120 <-- convert from dB to linear units;
#X text 196 150 <-- make a smooth ramp to avoid clicks or zipper noise
;
#X text 333 318 <-- automatically start DSP;
#X connect 0 0 3 0;
#X connect 1 0 6 0;
#X connect 2 0 5 0;
#X connect 3 0 12 0;
#X connect 4 0 12 0;
#X connect 5 0 1 0;
#X connect 6 0 0 0;
#X connect 6 1 7 0;
#X connect 7 0 4 0;
#X connect 8 1 3 1;
#X connect 9 0 22 0;
#X connect 10 0 1 1;
#X connect 10 0 8 0;
#X connect 11 0 9 0;
#X connect 11 0 16 0;
#X connect 13 0 20 0;
#X connect 14 0 15 0;
#X connect 14 0 18 0;
#X connect 16 0 17 0;
#X connect 19 0 20 1;
#X connect 20 0 21 0;
#X connect 20 0 21 1;
#X connect 22 0 19 0;
#X restore 42 449 pd output;
#X msg 91 428 MUTE;
#X floatatom 54 38 5 0 0 0 - - -;
#X text 231 212 link with bore freq;
#X connect 0 0 2 0;
#X connect 0 0 6 0;
#X connect 0 0 45 0;
#X connect 2 0 16 0;
#X connect 2 0 34 0;
#X connect 6 0 7 0;
#X connect 7 0 43 0;
#X connect 8 0 7 0;
#X connect 9 0 7 1;
#X connect 10 0 7 2;
#X connect 11 0 7 3;
#X connect 12 0 7 4;
#X connect 13 0 7 5;
#X connect 14 0 7 6;
#X connect 15 0 7 7;
#X connect 16 0 7 8;
#X connect 17 0 7 9;
#X connect 18 0 7 10;
#X connect 19 0 7 11;
#X connect 34 0 12 0;
#X connect 35 0 34 1;
#X connect 36 0 7 0;
#X connect 37 0 38 0;
#X connect 38 0 7 0;
#X connect 39 0 41 0;
#X connect 41 0 8 0;
#X connect 41 1 9 0;
#X connect 41 2 10 0;
#X connect 41 3 11 0;
#X connect 41 4 12 0;
#X connect 41 5 13 0;
#X connect 41 6 14 0;
#X connect 41 7 15 0;
#X connect 41 8 16 0;
#X connect 41 9 17 0;
#X connect 41 10 18 0;
#X connect 41 11 19 0;
#X connect 42 0 43 1;
#X connect 43 0 42 0;
#X connect 44 0 43 2;
