#N canvas 389 182 924 599 10;
#X text 12 246 computer music;
#X text 12 255 center \, columbia;
#X text 13 263 university;
#X text 9 71 pressure \, reed stiffness \,;
#X text 8 6 flip~;
#X text 8 20 signal inverter;
#X text 13 237 by r. luke dubois \,;
#X text 10 158 inspired by the most excellet;
#X text 10 166 'fold2' unit generator in;
#X text 10 173 james mccartney's supercollider;
#X text 8 51 flip~ takes a carrier signal;
#X text 9 61 and 'flips' it around a threshold;
#X text 8 80 signal if the absolute value of;
#X text 9 90 the carrier input is greater than;
#X text 8 99 the absolute value of the threshold.;
#X text 510 10 some examples...;
#X msg 432 44 1 0;
#X msg 432 68 0.5 0.75;
#X msg 433 93 0.75 0.5;
#X msg 434 119 0.75 5;
#X obj 405 24 loadbang;
#X obj 495 154 unpack 0 0;
#X obj 496 219 flip~;
#X obj 495 196 sig~;
#X floatatom 495 178 5 0 0 0 - - - 0;
#X obj 550 199 sig~;
#X floatatom 550 181 5 0 0 0 - - - 0;
#X obj 442 225 metro 20;
#X obj 497 242 snapshot~;
#X obj 442 206 tgl 15 0 empty empty empty 0 -6 0 8 #fcfcfc #000000 #000000 0 1;
#X msg 405 159 1;
#X floatatom 497 264 5 0 0 0 - - - 0;
#X obj 266 147 tgl 15 0 empty empty empty 0 -6 0 8 #fcfcfc #000000 #000000 0 1;
#X obj 266 170 metro 125;
#X floatatom 266 224 5 0 0 0 - - - 0;
#X obj 266 197 counter 0 15;
#N canvas 0 0 450 300 (subpatch) 0;
#X array mycoll 16 float 1;
#A 0 72 67 65 60 63 68 75 58 56 55 67 63 60 65 68 67;
#X coords 0 80 15 48 100 70 1;
#X restore 361 436 graph;
#X obj 266 248 tabread mycoll;
#X obj 266 275 mtof;
#X msg 266 302 \$1 20;
#X obj 266 356 osc~;
#X obj 330 355 osc~;
#X floatatom 330 304 5 0 0 0 - - - 0;
#X text 328 289 of the flip oscillator;
#X text 330 280 change the frequency;
#X obj 266 329 line~;
#X obj 152 375 tgl 15 0 empty empty empty 0 -6 0 8 #fcfcfc #000000 #000000 0 1;
#X text 126 342 reverse 'carrier' and;
#X text 126 350 'modulator' signals;
#N canvas 0 0 564 422 revcarmod 0;
#X obj 74 46 inlet;
#X floatatom 74 112 5 0 0 0 - - - 0;
#X obj 115 50 tgl 15 0 empty empty empty 0 -6 0 8 #fcfcfc #000000 #000000 0 1;
#X obj 198 43 inlet~;
#X obj 346 45 inlet~;
#X obj 101 92 expr ($i1-1)*-1;
#X floatatom 115 113 5 0 0 0 - - - 0;
#X obj 199 214 *~;
#X obj 200 246 +~;
#X obj 201 279 outlet~;
#X obj 232 214 *~;
#X obj 315 211 *~;
#X obj 316 246 +~;
#X obj 317 282 outlet~;
#X obj 346 211 *~;
#X connect 0 0 1 0;
#X connect 1 0 5 0;
#X connect 1 0 10 1;
#X connect 1 0 11 1;
#X connect 2 0 1 0;
#X connect 3 0 7 0;
#X connect 3 0 11 0;
#X connect 4 0 10 0;
#X connect 4 0 14 0;
#X connect 5 0 6 0;
#X connect 6 0 7 1;
#X connect 6 0 14 1;
#X connect 7 0 8 0;
#X connect 8 0 9 0;
#X connect 10 0 8 1;
#X connect 11 0 12 0;
#X connect 12 0 13 0;
#X connect 14 0 12 1;
#X restore 234 408 pd revcarmod;
#X obj 235 440 flip~ 0;
#X text 474 43 a theshold of 0 inverts the polarity of the incoming signal;
#X text 492 62 incoming signals below a non-zero threshold or its inverse are passed;
#X text 506 90 incoming signals above a non-zero threshold are flipped around the threshold;
#X text 503 121 the threshold applies for both positive and negative signals;
#X obj 235 488 dac~;
#X connect 16 0 21 0;
#X connect 17 0 21 0;
#X connect 18 0 21 0;
#X connect 19 0 21 0;
#X connect 20 0 16 0;
#X connect 20 0 30 0;
#X connect 21 0 24 0;
#X connect 21 1 26 0;
#X connect 22 0 28 0;
#X connect 23 0 22 0;
#X connect 24 0 23 0;
#X connect 25 0 22 1;
#X connect 26 0 25 0;
#X connect 27 0 28 0;
#X connect 28 0 31 0;
#X connect 29 0 27 0;
#X connect 30 0 29 0;
#X connect 32 0 33 0;
#X connect 34 0 37 0;
#X connect 37 0 38 0;
#X connect 38 0 39 0;
#X connect 39 0 45 0;
#X connect 40 0 49 1;
#X connect 41 0 49 2;
#X connect 42 0 41 0;
#X connect 45 0 40 0;
#X connect 46 0 49 0;
#X connect 49 0 50 0;
#X connect 49 1 50 1;
#X connect 50 0 55 0;
#X connect 50 0 55 1;
