#N canvas 956 25 686 558 10;
#X obj 203 397 agogo~ _________________________________;
#X obj 203 195 vsl 15 128 0 1 0 0 empty empty empty 0 -8 0 8 #fcfcfc #000000 #000000 0 1;
#X floatatom 203 350 5 0 0 0 - - - 0;
#X obj 250 195 vsl 15 128 0 1.55 0 0 empty empty empty 0 -8 0 8 #fcfcfc #000000 #000000 0 1;
#X floatatom 250 350 5 0 0 0 - - - 0;
#X obj 297 195 vsl 15 128 0 1 0 0 empty empty empty 0 -8 0 8 #fcfcfc #000000 #000000 0 1;
#X floatatom 297 350 5 0 0 0 - - - 0;
#X obj 344 195 vsl 15 128 0 10 0 0 empty empty empty 0 -8 0 8 #fcfcfc #000000 #000000 0 1;
#X floatatom 344 350 5 0 0 0 - - - 0;
#X obj 391 195 vsl 15 128 0 1 0 0 empty empty empty 0 -8 0 8 #fcfcfc #000000 #000000 0 1;
#X floatatom 391 349 5 0 0 0 - - - 0;
#X obj 438 195 vsl 15 128 100 3100 0 0 empty empty empty 0 -8 0 8 #fcfcfc #000000 #000000 0 1;
#X floatatom 438 347 5 0 0 0 - - - 0;
#X text 297 176 amp;
#X text 435 171 freq;
#X msg 110 301 noteon;
#X msg 154 301 noteoff;
#X text 13 -3 agogo~;
#X text 13 11 agogo modal synthesis model;
#X obj 364 96 hdl 15 1 0 3 empty empty empty 0 -6 0 8 #fcfcfc #000000 #000000 0;
#X text 309 79 try these presets;
#X obj 364 23 loadbang;
#X msg 364 43 0;
#X obj 478 111 int;
#X text 174 170 stick;
#X text 173 179 hardness;
#X text 233 168 stick;
#X text 232 180 position;
#X text 341 166 vib;
#X text 337 175 freq;
#X text 389 165 vib;
#X text 384 175 gain;
#X text 14 37 agogo~ is a model synthesis;
#X text 14 66 the percussion instrument.;
#X text 15 57 you control different values of;
#X text 15 47 implementation of an agogo.;
#X text 15 92 perry cook and gary scavone).;
#X text 15 84 ported from the STK (by;
#X text 13 123 by dan trueman \,;
#X text 12 132 computer music;
#X text 12 141 center \, columbia;
#X text 13 149 university;
#N canvas 389 265 539 342 mypresets 0;
#X obj 2 2 inlet;
#X obj 2 231 outlet;
#X obj 40 231 outlet;
#X obj 78 231 outlet;
#X obj 116 231 outlet;
#X obj 154 231 outlet;
#X obj 192 231 outlet;
#X obj 2 21 sel 0 1 2;
#X obj 2 205 unpack 0 0 0 0 0 0;
#X msg 2 40 0.99 0.86 0.98 3 0 987.767;
#X msg 18 60 0.99 0.86 0.98 4.88 0.99 391.995;
#X msg 34 79 0.99 0.86 0.99 33 0.99 116.541;
#X connect 0 0 7 0;
#X connect 7 0 9 0;
#X connect 7 1 10 0;
#X connect 7 2 11 0;
#X connect 8 0 1 0;
#X connect 8 1 2 0;
#X connect 8 2 3 0;
#X connect 8 3 4 0;
#X connect 8 4 5 0;
#X connect 8 5 6 0;
#X connect 9 0 8 0;
#X connect 10 0 8 0;
#X connect 11 0 8 0;
#X restore 478 176 pd mypresets;
#X obj 202 461 dac~;
#X connect 0 0 43 0;
#X connect 0 0 43 1;
#X connect 1 0 2 0;
#X connect 2 0 0 0;
#X connect 3 0 4 0;
#X connect 4 0 0 1;
#X connect 5 0 6 0;
#X connect 6 0 0 2;
#X connect 7 0 8 0;
#X connect 8 0 0 3;
#X connect 9 0 10 0;
#X connect 10 0 0 4;
#X connect 11 0 12 0;
#X connect 12 0 0 5;
#X connect 15 0 0 0;
#X connect 16 0 0 0;
#X connect 19 0 23 0;
#X connect 21 0 22 0;
#X connect 22 0 19 0;
#X connect 23 0 42 0;
#X connect 42 0 1 0;
#X connect 42 1 3 0;
#X connect 42 2 5 0;
#X connect 42 3 7 0;
#X connect 42 4 9 0;
#X connect 42 5 11 0;
