#N canvas 151 104 820 558 10;
#X obj 203 195 vsl 15 128 0 100 0 0 empty empty empty 0 -8 0 8 -262144
-1 -1 4064 1;
#X floatatom 203 334 5 0 0 0 - - -;
#X obj 250 195 vsl 15 128 0 100 0 0 empty empty empty 0 -8 0 8 -262144
-1 -1 8128 1;
#X floatatom 250 334 5 0 0 0 - - -;
#X obj 297 195 vsl 15 128 0 150 0 0 empty empty empty 0 -8 0 8 -262144
-1 -1 0 1;
#X floatatom 297 334 5 0 0 0 - - -;
#X obj 344 195 vsl 15 128 0 127 0 0 empty empty empty 0 -8 0 8 -262144
-1 -1 2000 1;
#X floatatom 344 334 5 0 0 0 - - -;
#X obj 391 195 vsl 15 128 0 100 0 0 empty empty empty 0 -8 0 8 -262144
-1 -1 8128 1;
#X floatatom 391 333 5 0 0 0 - - -;
#X obj 438 195 vsl 15 128 56 127 0 0 empty empty empty 0 -8 0 8 -262144
-1 -1 1968 1;
#X floatatom 438 331 5 0 0 0 - - -;
#X obj 364 96 hdl 15 1 0 3 empty empty empty 0 -6 0 8 -262144 -1 -1
0;
#X text 309 79 try these presets;
#X obj 364 23 loadbang;
#X msg 364 43 0;
#X obj 521 111 int;
#X text 393 165 vib;
#X text 15 121 perry cook and gary scavone).;
#X text 15 113 ported from the STK (by;
#X text 13 152 by dan trueman \,;
#X text 12 161 computer music;
#X text 12 170 center \, columbia;
#X text 13 178 university;
#N canvas 389 265 541 344 mypresets 0;
#X obj 2 2 inlet;
#X obj 2 231 outlet;
#X obj 40 231 outlet;
#X obj 78 231 outlet;
#X obj 116 231 outlet;
#X obj 154 231 outlet;
#X obj 192 231 outlet;
#X obj 2 21 sel 0 1 2;
#X obj 2 205 unpack 0 0 0 0 0 0;
#X msg 2 40 32 64 0 20 64 67;
#X msg 18 60 32 64 0 20 64 67;
#X msg 34 79 32 64 0 20 64 67;
#X connect 0 0 7 0;
#X connect 7 0 9 0;
#X connect 7 1 10 0;
#X connect 7 2 11 0;
#X connect 8 0 1 0;
#X connect 8 1 2 0;
#X connect 8 2 3 0;
#X connect 8 3 4 0;
#X connect 8 4 5 0;
#X connect 8 5 6 0;
#X connect 9 0 8 0;
#X connect 10 0 8 0;
#X connect 11 0 8 0;
#X restore 521 176 pd mypresets;
#X text 13 -3 brass~;
#X text 13 11 brass instrument model;
#X text 14 37 brass~ is a physical model of;
#X text 15 47 a brass instrument... you can;
#X text 15 57 control lip tension \, slide;
#X text 14 66 deviation \, vibrato gain and;
#X text 15 76 frequency \, air pressure \, and;
#X text 14 85 the lenght of the brass tube.;
#X obj 235 22 tgl 15 0 empty empty empty 0 -6 0 8 -262144 -1 -1 1 1
;
#X obj 235 42 metro 250;
#X obj 235 63 random 24;
#X obj 235 84 + 57;
#X text 194 169 lip;
#X text 181 177 tension;
#X text 241 171 slide;
#X text 232 180 deviation;
#X text 297 176 gain;
#X text 290 168 vibrato;
#X text 342 167 air;
#X text 334 177 pressure;
#X text 335 157 maximum;
#X text 379 171 frequency;
#X text 441 174 (frequency);
#X text 441 154 slide;
#X text 441 164 length;
#X floatatom 228 467 0 0 100 0 - - -;
#N canvas 331 136 786 621 output 0;
#X obj 455 510 t b;
#X obj 455 450 f;
#X obj 455 390 inlet;
#X obj 455 540 f;
#X msg 566 532 0;
#X msg 455 420 bang;
#X obj 455 480 moses 1;
#X obj 566 502 t b f;
#X obj 535 460 moses 1;
#X obj 107 121 dbtorms;
#X obj 535 430 r master-lvl;
#X obj 107 28 r master-lvl;
#X obj 455 570 s master-lvl;
#X obj 36 228 inlet~;
#X obj 250 258 inlet;
#X obj 268 283 s master-lvl;
#X msg 119 57 set \$1;
#X obj 119 87 outlet;
#X msg 250 309 \; pd dsp 1;
#X obj 107 181 line~;
#X obj 36 258 *~;
#X obj 36 288 dac~;
#X obj 107 151 pack 0 50;
#X text 23 205 audio in;
#X text 2 313 out both channels;
#X text 273 182 Level input. Send to master-lvl and start DSP (we infer
that if you're changing the level you want to hear the network.) If
you start DSP when it's already running there's no effect.;
#X text 59 542 here is the previous nonzero master-lvl -->;
#X text 98 451 recall previous value of master-lvl -->;
#X text 239 482 test if less than 1 -->;
#X text 203 510 if true convert to bang -->;
#X text 218 351 Mute control. If the master level is zero \, restore
to the last nonzero one \, otherwise zero it.;
#X text 182 86 <-- update the number box to show new level;
#X text 178 120 <-- convert from dB to linear units;
#X text 196 150 <-- make a smooth ramp to avoid clicks or zipper noise
;
#X text 333 318 <-- automatically start DSP;
#X connect 0 0 3 0;
#X connect 1 0 6 0;
#X connect 2 0 5 0;
#X connect 3 0 12 0;
#X connect 4 0 12 0;
#X connect 5 0 1 0;
#X connect 6 0 0 0;
#X connect 6 1 7 0;
#X connect 7 0 4 0;
#X connect 8 1 3 1;
#X connect 9 0 22 0;
#X connect 10 0 1 1;
#X connect 10 0 8 0;
#X connect 11 0 9 0;
#X connect 11 0 16 0;
#X connect 13 0 20 0;
#X connect 14 0 15 0;
#X connect 14 0 18 0;
#X connect 16 0 17 0;
#X connect 19 0 20 1;
#X connect 20 0 21 0;
#X connect 20 0 21 1;
#X connect 22 0 19 0;
#X restore 204 490 pd output;
#X floatatom 203 427 5 0 0 0 - - -;
#X floatatom 250 427 5 0 0 0 - - -;
#X floatatom 297 427 5 0 0 0 - - -;
#X floatatom 344 427 5 0 0 0 - - -;
#X floatatom 391 426 5 0 0 0 - - -;
#X floatatom 438 424 5 0 0 0 - - -;
#X msg 253 467 mute;
#X obj 203 446 brass~ _________________________________;
#N canvas 0 0 730 611 myequation 0;
#X obj 99 117 pow 4;
#X floatatom 139 170 5 0 0 0 - - -;
#X msg 99 96 4;
#X floatatom 124 77 5 0 0 0 - - -;
#X floatatom 159 36 5 0 0 0 - - -;
#X obj 99 139 - 1;
#X obj 124 57 expr (2*($i1/127.));
#X obj 124 32 inlet;
#X obj 99 170 outlet;
#X connect 0 0 5 0;
#X connect 2 0 0 0;
#X connect 3 0 0 1;
#X connect 3 0 2 0;
#X connect 4 0 6 0;
#X connect 5 0 1 0;
#X connect 5 0 8 0;
#X connect 6 0 3 0;
#X connect 7 0 6 0;
#X restore 203 353 pd myequation;
#X obj 250 375 expr 0.5 + ($i1/127.0);
#X obj 297 352 * 0.01;
#X obj 344 352 / 127;
#X obj 391 352 * 0.1;
#X obj 438 353 mtof;
#X msg 235 2 1;
#X connect 0 0 1 0;
#X connect 1 0 60 0;
#X connect 2 0 3 0;
#X connect 3 0 61 0;
#X connect 4 0 5 0;
#X connect 5 0 62 0;
#X connect 6 0 7 0;
#X connect 7 0 63 0;
#X connect 8 0 9 0;
#X connect 9 0 64 0;
#X connect 10 0 11 0;
#X connect 11 0 65 0;
#X connect 12 0 16 0;
#X connect 14 0 15 0;
#X connect 14 0 66 0;
#X connect 15 0 12 0;
#X connect 16 0 24 0;
#X connect 24 0 0 0;
#X connect 24 1 2 0;
#X connect 24 2 4 0;
#X connect 24 3 6 0;
#X connect 24 4 8 0;
#X connect 24 5 10 0;
#X connect 33 0 34 0;
#X connect 34 0 35 0;
#X connect 35 0 36 0;
#X connect 36 0 10 0;
#X connect 50 0 51 1;
#X connect 51 0 50 0;
#X connect 52 0 59 0;
#X connect 53 0 59 1;
#X connect 54 0 59 2;
#X connect 55 0 59 3;
#X connect 56 0 59 4;
#X connect 57 0 59 5;
#X connect 58 0 51 2;
#X connect 59 0 51 0;
#X connect 60 0 52 0;
#X connect 61 0 53 0;
#X connect 62 0 54 0;
#X connect 63 0 55 0;
#X connect 64 0 56 0;
#X connect 65 0 57 0;
#X connect 66 0 33 0;
