#N canvas 614 62 826 529 10;
#X obj 261 4 loadbang;
#X obj 261 27 bng 15 250 50 0 empty empty empty 0 -6 0 8 #fcfcfc #000000 #000000;
#X obj 261 76 unpack 0 0 0 0 0 0;
#X floatatom 261 256 5 0 0 0 - - - 0;
#X floatatom 261 167 5 0 0 0 - - - 0;
#X floatatom 324 167 5 0 0 0 - - - 0;
#X floatatom 324 256 5 0 0 0 - - - 0;
#X obj 388 227 * 0.01;
#X floatatom 388 260 5 0 0 0 - - - 0;
#X floatatom 452 256 5 0 0 0 - - - 0;
#X floatatom 516 256 5 0 0 0 - - - 0;
#X obj 580 186 mtof;
#X floatatom 580 255 5 0 0 0 - - - 0;
#X text 10 166 perry cook and gary scavone).;
#X text 10 158 ported from the STK (by;
#X text 13 237 by dan trueman \,;
#X text 12 246 computer music;
#X text 12 255 center \, columbia;
#X text 13 263 university;
#X floatatom 388 167 5 0 0 0 - - - 0;
#X floatatom 452 167 5 0 0 0 - - - 0;
#X floatatom 516 167 5 0 0 0 - - - 0;
#X floatatom 580 167 5 0 0 0 - - - 0;
#X text 579 150 frequency;
#X text 8 6 clarinet~;
#X text 8 20 clarinet model.;
#X text 8 51 clarinet~ is a clarinet physical;
#X text 9 61 model. you control the breath;
#X text 9 71 pressure \, reed stiffness \,;
#X text 8 80 amount of noise \, vibrato gain;
#X text 9 90 and frequency \, and the overall;
#X text 8 99 frequency.;
#X msg 261 46 16 2 0 77 64 65;
#X obj 516 186 / 10;
#X text 267 138 reed;
#X text 266 150 stiffness;
#X text 325 140 noise;
#X text 325 150 gain;
#X text 388 150 gain;
#X text 452 138 breath;
#X text 450 150 pressure;
#X text 518 138 vibrato;
#X text 517 150 frequency;
#X text 579 138 overall;
#X obj 452 186 / 127;
#X obj 261 339 clarinet~ ____________________________________________;
#X text 381 143 vibrato;
#X obj 324 208 expr 0.5 + ($i1/127.);
#X obj 261 186 expr (-0.44 + (.26*($i1/128.)));
#X obj 260 406 dac~;
#X connect 0 0 1 0;
#X connect 1 0 32 0;
#X connect 2 0 4 0;
#X connect 2 1 5 0;
#X connect 2 2 19 0;
#X connect 2 3 20 0;
#X connect 2 4 21 0;
#X connect 2 5 22 0;
#X connect 3 0 45 0;
#X connect 4 0 48 0;
#X connect 5 0 47 0;
#X connect 6 0 45 1;
#X connect 7 0 8 0;
#X connect 8 0 45 2;
#X connect 9 0 45 3;
#X connect 10 0 45 4;
#X connect 11 0 12 0;
#X connect 12 0 45 5;
#X connect 19 0 7 0;
#X connect 20 0 44 0;
#X connect 21 0 33 0;
#X connect 22 0 11 0;
#X connect 32 0 2 0;
#X connect 33 0 10 0;
#X connect 44 0 9 0;
#X connect 45 0 49 0;
#X connect 45 0 49 1;
#X connect 47 0 6 0;
#X connect 48 0 3 0;
