#N canvas 23 49 822 525 10;
#X obj 261 4 loadbang;
#X obj 261 27 bng 15 250 50 0 empty empty empty 0 -6 0 8 -262144 -1
-1;
#X obj 261 76 unpack 0 0 0 0 0 0;
#X floatatom 261 256 5 0 0 0 - - -;
#X floatatom 284 385 0 0 100 0 - - -;
#N canvas 331 136 786 621 output 0;
#X obj 455 510 t b;
#X obj 455 450 f;
#X obj 455 390 inlet;
#X obj 455 540 f;
#X msg 566 532 0;
#X msg 455 420 bang;
#X obj 455 480 moses 1;
#X obj 566 502 t b f;
#X obj 535 460 moses 1;
#X obj 107 121 dbtorms;
#X obj 535 430 r master-lvl;
#X obj 107 28 r master-lvl;
#X obj 455 570 s master-lvl;
#X obj 36 228 inlet~;
#X obj 250 258 inlet;
#X obj 268 283 s master-lvl;
#X msg 119 57 set \$1;
#X obj 119 87 outlet;
#X msg 250 309 \; pd dsp 1;
#X obj 107 181 line~;
#X obj 36 258 *~;
#X obj 36 288 dac~;
#X obj 107 151 pack 0 50;
#X text 23 205 audio in;
#X text 2 313 out both channels;
#X text 273 182 Level input. Send to master-lvl and start DSP (we infer
that if you're changing the level you want to hear the network.) If
you start DSP when it's already running there's no effect.;
#X text 59 542 here is the previous nonzero master-lvl -->;
#X text 98 451 recall previous value of master-lvl -->;
#X text 239 482 test if less than 1 -->;
#X text 203 510 if true convert to bang -->;
#X text 218 351 Mute control. If the master level is zero \, restore
to the last nonzero one \, otherwise zero it.;
#X text 182 86 <-- update the number box to show new level;
#X text 178 120 <-- convert from dB to linear units;
#X text 196 150 <-- make a smooth ramp to avoid clicks or zipper noise
;
#X text 333 318 <-- automatically start DSP;
#X connect 0 0 3 0;
#X connect 1 0 6 0;
#X connect 2 0 5 0;
#X connect 3 0 12 0;
#X connect 4 0 12 0;
#X connect 5 0 1 0;
#X connect 6 0 0 0;
#X connect 6 1 7 0;
#X connect 7 0 4 0;
#X connect 8 1 3 1;
#X connect 9 0 22 0;
#X connect 10 0 1 1;
#X connect 10 0 8 0;
#X connect 11 0 9 0;
#X connect 11 0 16 0;
#X connect 13 0 20 0;
#X connect 14 0 15 0;
#X connect 14 0 18 0;
#X connect 16 0 17 0;
#X connect 19 0 20 1;
#X connect 20 0 21 0;
#X connect 20 0 21 1;
#X connect 22 0 19 0;
#X restore 260 406 pd output;
#X floatatom 261 167 5 0 0 0 - - -;
#X floatatom 324 167 5 0 0 0 - - -;
#X floatatom 324 256 5 0 0 0 - - -;
#X obj 388 191 * 0.01;
#X floatatom 389 256 5 0 0 0 - - -;
#X floatatom 452 256 5 0 0 0 - - -;
#X floatatom 516 256 5 0 0 0 - - -;
#X obj 579 191 mtof;
#X floatatom 580 256 5 0 0 0 - - -;
#X text 10 166 perry cook and gary scavone).;
#X text 10 158 ported from the STK (by;
#X text 13 237 by dan trueman \,;
#X text 12 246 computer music;
#X text 12 255 center \, columbia;
#X text 13 263 university;
#X text 8 20 physical model of a bowed;
#X obj 261 339 bowed~ _______________________________________________
;
#X msg 309 385 mute;
#X floatatom 388 167 5 0 0 0 - - -;
#X floatatom 452 167 5 0 0 0 - - -;
#X floatatom 516 167 5 0 0 0 - - -;
#X floatatom 579 167 5 0 0 0 - - -;
#X text 267 138 bow;
#X text 266 150 pressure;
#X text 325 150 position;
#X text 388 150 velocity;
#X text 8 6 bowedbar~;
#X text 8 29 percussion bar;
#X text 8 51 bowed~ models the bowing;
#X text 9 61 of a percussion bar.;
#X text 9 71 you can control the pressure \,;
#X text 8 80 position \, and velocity of the;
#X text 9 90 bow \, as well as the frequency;
#X text 8 99 of the bar \, the overall gain \,;
#X text 9 108 and a wacky feedback factor;
#X text 10 118 that sounds kind of cool.;
#X text 9 127 maybe.;
#X text 10 176 the bower bas is;
#X text 10 184 mostly the result of work by;
#X text 10 195 the nutty Georg Essl.;
#X text 324 139 bow;
#X text 390 140 bow;
#X text 452 140 gain;
#X text 518 141 wacko bug;
#X text 517 152 factor;
#X text 579 140 bar;
#X text 579 153 frequency;
#X msg 261 46 126 177 90 96 0 78;
#X msg 378 46 117 97 17 83 127 60;
#X msg 500 46 110 96 9 83 127 39;
#X msg 618 46 78 96 92 117 107 45;
#X text 388 22 some of dan's faves.;
#X text 633 64 (adjust the pressure slider --;
#X text 636 77 leftmost -- for this one;
#X obj 264 113 hsl 90 8 0 127 0 0 empty empty empty -2 -6 0 8 -262144
-1 -1 8830 1;
#X obj 238 191 expr 10.-(9.*($i1/128.));
#X obj 324 216 / 200;
#X obj 452 214 expr (0.809 + (0.2*($i1/128.)));
#X obj 516 191 / 128;
#X connect 0 0 1 0;
#X connect 1 0 53 0;
#X connect 2 0 60 0;
#X connect 2 1 7 0;
#X connect 2 2 24 0;
#X connect 2 3 25 0;
#X connect 2 4 26 0;
#X connect 2 5 27 0;
#X connect 3 0 22 0;
#X connect 4 0 5 1;
#X connect 5 0 4 0;
#X connect 6 0 61 0;
#X connect 7 0 62 0;
#X connect 8 0 22 1;
#X connect 9 0 10 0;
#X connect 10 0 22 2;
#X connect 11 0 22 3;
#X connect 12 0 22 4;
#X connect 13 0 14 0;
#X connect 14 0 22 5;
#X connect 22 0 5 0;
#X connect 23 0 5 2;
#X connect 24 0 9 0;
#X connect 25 0 63 0;
#X connect 26 0 64 0;
#X connect 27 0 13 0;
#X connect 53 0 2 0;
#X connect 54 0 2 0;
#X connect 55 0 2 0;
#X connect 56 0 2 0;
#X connect 60 0 6 0;
#X connect 61 0 3 0;
#X connect 62 0 8 0;
#X connect 63 0 11 0;
#X connect 64 0 12 0;
