#N canvas 766 74 822 525 10;
#X obj 261 14 loadbang;
#X obj 261 37 bng 15 250 50 0 empty empty empty 0 -6 0 8 #fcfcfc #000000 #000000;
#X msg 261 54 117 110 51 42 10 67;
#X obj 261 76 unpack 0 0 0 0 0 0;
#X floatatom 261 256 5 0 0 0 - - - 0;
#X obj 243 191 expr 5.-(4.*($i1/128.));
#X floatatom 261 167 5 0 0 0 - - - 0;
#X obj 301 216 expr 0.027236 + (0.2 *$i1 / 128.);
#X floatatom 324 167 5 0 0 0 - - - 0;
#X floatatom 324 256 5 0 0 0 - - - 0;
#X obj 388 191 * 0.01;
#X floatatom 389 256 5 0 0 0 - - - 0;
#X obj 452 191 / 8;
#X floatatom 452 256 5 0 0 0 - - - 0;
#X obj 516 191 * 0.001;
#X floatatom 516 256 5 0 0 0 - - - 0;
#X obj 579 191 mtof;
#X floatatom 580 256 5 0 0 0 - - - 0;
#X text 9 135 perry cook and gary scavone).;
#X text 9 127 ported from the STK (by;
#X text 7 166 by dan trueman \,;
#X text 6 175 computer music;
#X text 6 184 center \, columbia;
#X text 7 192 university;
#X text 8 6 bowed~;
#X text 8 51 bowed~ models a bowed;
#X text 9 61 stringed instrument. you;
#X text 9 71 control the bow pressure \,;
#X text 8 80 position \, and velocity \, as well;
#X text 9 90 as vibrato frequency \, gain and;
#X text 8 99 the length of the string.;
#X text 8 20 physical model of a bowed;
#X text 8 29 string instrument;
#X obj 261 339 bowed~ _______________________________________________;
#X floatatom 388 167 5 0 0 0 - - - 0;
#X floatatom 452 167 5 0 0 0 - - - 0;
#X floatatom 516 167 5 0 0 0 - - - 0;
#X floatatom 579 167 5 0 0 0 - - - 0;
#X text 267 138 bow;
#X text 266 150 pressure;
#X text 326 140 position;
#X text 388 141 velocity;
#X text 452 140 vibrato;
#X text 451 152 frequency;
#X text 518 141 vibrato;
#X text 517 152 gain;
#X text 579 140 string;
#X text 579 153 length;
#X obj 260 406 dac~;
#X connect 0 0 1 0;
#X connect 1 0 2 0;
#X connect 2 0 3 0;
#X connect 3 0 6 0;
#X connect 3 1 8 0;
#X connect 3 2 34 0;
#X connect 3 3 35 0;
#X connect 3 4 36 0;
#X connect 3 5 37 0;
#X connect 4 0 33 0;
#X connect 5 0 4 0;
#X connect 6 0 5 0;
#X connect 7 0 9 0;
#X connect 8 0 7 0;
#X connect 9 0 33 1;
#X connect 10 0 11 0;
#X connect 11 0 33 2;
#X connect 12 0 13 0;
#X connect 13 0 33 3;
#X connect 14 0 15 0;
#X connect 15 0 33 4;
#X connect 16 0 17 0;
#X connect 17 0 33 5;
#X connect 33 0 48 0;
#X connect 33 0 48 1;
#X connect 34 0 10 0;
#X connect 35 0 12 0;
#X connect 36 0 14 0;
#X connect 37 0 16 0;
