#N canvas 23 49 834 537 10;
#X text 10 166 perry cook and gary scavone).;
#X text 10 158 ported from the STK (by;
#X text 13 237 by dan trueman \,;
#X text 12 246 computer music;
#X text 12 255 center \, columbia;
#X text 13 263 university;
#X text 8 51 marimba is a physical;
#X text 9 61 synthesis model of a struck;
#X floatatom 401 350 0 0 100 0 - - -;
#N canvas 331 136 786 621 output 0;
#X obj 455 510 t b;
#X obj 455 450 f;
#X obj 455 390 inlet;
#X obj 455 540 f;
#X msg 566 532 0;
#X msg 455 420 bang;
#X obj 455 480 moses 1;
#X obj 566 502 t b f;
#X obj 535 460 moses 1;
#X obj 107 121 dbtorms;
#X obj 535 430 r master-lvl;
#X obj 107 28 r master-lvl;
#X obj 455 570 s master-lvl;
#X obj 36 228 inlet~;
#X obj 250 258 inlet;
#X obj 268 283 s master-lvl;
#X msg 119 57 set \$1;
#X obj 119 87 outlet;
#X msg 250 309 \; pd dsp 1;
#X obj 107 181 line~;
#X obj 36 258 *~;
#X obj 36 288 dac~;
#X obj 107 151 pack 0 50;
#X text 23 205 audio in;
#X text 2 313 out both channels;
#X text 273 182 Level input. Send to master-lvl and start DSP (we infer
that if you're changing the level you want to hear the network.) If
you start DSP when it's already running there's no effect.;
#X text 59 542 here is the previous nonzero master-lvl -->;
#X text 98 451 recall previous value of master-lvl -->;
#X text 239 482 test if less than 1 -->;
#X text 203 510 if true convert to bang -->;
#X text 218 351 Mute control. If the master level is zero \, restore
to the last nonzero one \, otherwise zero it.;
#X text 182 86 <-- update the number box to show new level;
#X text 178 120 <-- convert from dB to linear units;
#X text 196 150 <-- make a smooth ramp to avoid clicks or zipper noise
;
#X text 333 318 <-- automatically start DSP;
#X connect 0 0 3 0;
#X connect 1 0 6 0;
#X connect 2 0 5 0;
#X connect 3 0 12 0;
#X connect 4 0 12 0;
#X connect 5 0 1 0;
#X connect 6 0 0 0;
#X connect 6 1 7 0;
#X connect 7 0 4 0;
#X connect 8 1 3 1;
#X connect 9 0 22 0;
#X connect 10 0 1 1;
#X connect 10 0 8 0;
#X connect 11 0 9 0;
#X connect 11 0 16 0;
#X connect 13 0 20 0;
#X connect 14 0 15 0;
#X connect 14 0 18 0;
#X connect 16 0 17 0;
#X connect 19 0 20 1;
#X connect 20 0 21 0;
#X connect 20 0 21 1;
#X connect 22 0 19 0;
#X restore 377 372 pd output;
#X obj 378 39 vsl 15 128 0 1 0 0 empty empty empty 0 -8 0 8 -262144
-1 -1 12573 1;
#X floatatom 378 225 5 0 0 0 - - -;
#X obj 433 39 vsl 15 128 0 1 0 0 empty empty empty 0 -8 0 8 -262144
-1 -1 10922 1;
#X floatatom 433 226 5 0 0 0 - - -;
#X obj 488 39 vsl 15 128 0 1 0 0 empty empty empty 0 -8 0 8 -262144
-1 -1 12446 1;
#X floatatom 488 228 5 0 0 0 - - -;
#X obj 544 39 vsl 15 128 0 10 0 0 empty empty empty 0 -8 0 8 -262144
-1 -1 3810 1;
#X floatatom 544 227 5 0 0 0 - - -;
#X obj 599 39 vsl 15 128 0 1 0 0 empty empty empty 0 -8 0 8 -262144
-1 -1 12573 1;
#X floatatom 599 227 5 0 0 0 - - -;
#X obj 655 39 vsl 15 128 0 127 0 0 empty empty empty 0 -8 0 8 -262144
-1 -1 6700 1;
#X floatatom 655 226 5 0 0 0 - - -;
#X msg 262 235 noteon;
#X msg 306 235 noteoff;
#X obj 378 -7 hdl 15 1 0 3 empty empty empty 0 -6 0 8 -262144 -1 -1
0;
#X text 380 -27 try these presets;
#X obj 655 245 mtof;
#X msg 426 350 mute;
#X floatatom 655 271 5 0 0 0 - - -;
#X text 381 192 stick;
#X text 381 203 hardness;
#X text 437 193 stick;
#X text 437 204 position;
#X text 493 195 amplitude;
#X text 553 193 vib;
#X text 553 204 freq;
#X text 605 194 vib;
#X text 605 205 gain;
#X text 658 193 frequency;
#N canvas 389 265 545 348 mypresets 0;
#X obj 2 2 inlet;
#X obj 2 137 outlet;
#X obj 40 137 outlet;
#X obj 78 137 outlet;
#X obj 116 137 outlet;
#X obj 154 137 outlet;
#X obj 192 137 outlet;
#X obj 2 21 sel 0 1 2;
#X obj 2 104 unpack 0 0 0 0 0 0;
#X msg 2 45 0.99 0.86 0.98 3 0.99 67;
#X msg 19 73 0.99 0.86 0.98 4.88 0.99 64;
#X connect 0 0 7 0;
#X connect 7 0 9 0;
#X connect 7 1 10 0;
#X connect 8 0 1 0;
#X connect 8 1 2 0;
#X connect 8 2 3 0;
#X connect 8 3 4 0;
#X connect 8 4 5 0;
#X connect 8 5 6 0;
#X connect 9 0 8 0;
#X connect 10 0 8 0;
#X restore 378 15 pd mypresets __________________________________;
#X text 8 6 vibraphone~;
#X text 8 20 vibraphone model;
#X text 9 71 vibraphone.;
#X obj 378 307 vibraphone~ ___________________________________;
#X connect 8 0 9 1;
#X connect 9 0 8 0;
#X connect 10 0 11 0;
#X connect 11 0 43 0;
#X connect 12 0 13 0;
#X connect 13 0 43 1;
#X connect 14 0 15 0;
#X connect 15 0 43 2;
#X connect 16 0 17 0;
#X connect 17 0 43 3;
#X connect 18 0 19 0;
#X connect 19 0 43 4;
#X connect 20 0 21 0;
#X connect 21 0 26 0;
#X connect 22 0 43 0;
#X connect 23 0 43 0;
#X connect 24 0 39 0;
#X connect 26 0 28 0;
#X connect 27 0 9 2;
#X connect 28 0 43 5;
#X connect 39 0 10 0;
#X connect 39 1 12 0;
#X connect 39 2 14 0;
#X connect 39 3 16 0;
#X connect 39 4 18 0;
#X connect 39 5 20 0;
#X connect 43 0 9 0;
