#N canvas 92 38 809 491 10;
#X floatatom 345 429 0 0 100 0 - - -;
#X msg 373 429 mute;
#X text 17 198 computer music;
#X text 17 207 center \, columbia;
#X text 18 215 university;
#X text 12 2 chase;
#X text 12 16 signal comparator;
#X text 13 42 chase takes two input signals in its left;
#X text 14 52 and middle inlets \, and a sync signal in its;
#X text 14 62 right inlet. the two leftmost signals are;
#X text 13 71 compared to the sync signal. the one closest;
#X text 14 81 to the sync signal is put out the left outlet.;
#X text 14 90 the one farthest from the sync signal is put;
#X text 14 98 out the right outlet;
#X text 18 189 by r. luke dubois \,;
#X floatatom 318 151 5 0 0 0 - - -;
#X obj 318 172 osc~ 220;
#X floatatom 372 151 5 0 0 0 - - -;
#X floatatom 426 151 5 0 0 0 - - -;
#X obj 372 172 osc~ 225;
#X obj 426 172 osc~ 0.1;
#X obj 317 218 chase~ ____________;
#X obj 318 18 loadbang;
#X msg 318 38 0;
#N canvas 436 177 454 304 presets 0;
#X obj 91 19 inlet;
#X obj 91 50 sel 0 1 2 3 4 5 6 7;
#X obj 115 254 outlet;
#X obj 115 221 unpack 0 0 0;
#X obj 155 254 outlet;
#X obj 195 254 outlet;
#X msg 16 83 220 225 0.1;
#X msg 90 83 100 200 0.5;
#X msg 164 83 100 0.5 152;
#X msg 240 83 50 500 -5;
#X msg 20 129 5 4.5 400;
#X msg 92 129 15 69 800;
#X msg 172 129 1 -0.71 200;
#X msg 247 130 60 50 700;
#X connect 0 0 1 0;
#X connect 1 0 6 0;
#X connect 1 1 7 0;
#X connect 1 2 8 0;
#X connect 1 3 9 0;
#X connect 1 4 10 0;
#X connect 1 5 11 0;
#X connect 1 6 12 0;
#X connect 1 7 13 0;
#X connect 3 0 2 0;
#X connect 3 1 4 0;
#X connect 3 2 5 0;
#X connect 6 0 3 0;
#X connect 7 0 3 0;
#X connect 8 0 3 0;
#X connect 9 0 3 0;
#X connect 10 0 3 0;
#X connect 11 0 3 0;
#X connect 12 0 3 0;
#X connect 13 0 3 0;
#X restore 318 80 pd presets;
#X obj 318 58 hradio 15 1 0 8 empty empty empty 0 -6 0 8 -262144 -1
-1 0;
#N canvas 200 98 796 631 outputs 0;
#X obj 455 510 t b;
#X obj 455 450 f;
#X obj 455 390 inlet;
#X obj 455 540 f;
#X msg 566 532 0;
#X msg 455 420 bang;
#X obj 455 480 moses 1;
#X obj 566 502 t b f;
#X obj 535 460 moses 1;
#X obj 107 121 dbtorms;
#X obj 535 430 r master-lvl;
#X obj 107 28 r master-lvl;
#X obj 455 570 s master-lvl;
#X obj 36 228 inlet~;
#X obj 250 258 inlet;
#X obj 268 283 s master-lvl;
#X msg 119 57 set \$1;
#X obj 119 87 outlet;
#X msg 250 309 \; pd dsp 1;
#X obj 107 181 line~;
#X obj 36 258 *~;
#X obj 36 288 dac~;
#X obj 107 151 pack 0 50;
#X text 23 205 audio in;
#X text 2 313 out both channels;
#X text 273 182 Level input. Send to master-lvl and start DSP (we infer
that if you're changing the level you want to hear the network.) If
you start DSP when it's already running there's no effect.;
#X text 59 542 here is the previous nonzero master-lvl -->;
#X text 98 451 recall previous value of master-lvl -->;
#X text 239 482 test if less than 1 -->;
#X text 203 510 if true convert to bang -->;
#X text 218 351 Mute control. If the master level is zero \, restore
to the last nonzero one \, otherwise zero it.;
#X text 182 86 <-- update the number box to show new level;
#X text 178 120 <-- convert from dB to linear units;
#X text 196 150 <-- make a smooth ramp to avoid clicks or zipper noise
;
#X text 333 318 <-- automatically start DSP;
#X connect 0 0 3 0;
#X connect 1 0 6 0;
#X connect 2 0 5 0;
#X connect 3 0 12 0;
#X connect 4 0 12 0;
#X connect 5 0 1 0;
#X connect 6 0 0 0;
#X connect 6 1 7 0;
#X connect 7 0 4 0;
#X connect 8 1 3 1;
#X connect 9 0 22 0;
#X connect 10 0 1 1;
#X connect 10 0 8 0;
#X connect 11 0 9 0;
#X connect 11 0 16 0;
#X connect 13 0 20 0;
#X connect 14 0 15 0;
#X connect 14 0 18 0;
#X connect 16 0 17 0;
#X connect 19 0 20 1;
#X connect 20 0 21 0;
#X connect 20 0 21 1;
#X connect 22 0 19 0;
#X restore 318 451 pd outputs;
#X obj 318 350 *~ 0.9;
#X obj 317 383 +~;
#X obj 317 404 *~ 0.5;
#X obj 349 248 vsl 8 80 0 1 0 0 empty empty empty 0 -8 0 8 -262144
-1 -1 0 1;
#X obj 456 245 vsl 8 80 0 1 0 0 empty empty empty 0 -8 0 8 -262144
-1 -1 0 1;
#X obj 425 351 *~ 0.9;
#X text 362 256 winner;
#X text 470 255 loser;
#X text 448 56 some tasy presets;
#X connect 0 0 26 1;
#X connect 1 0 26 2;
#X connect 15 0 16 0;
#X connect 16 0 21 0;
#X connect 17 0 19 0;
#X connect 18 0 20 0;
#X connect 19 0 21 1;
#X connect 20 0 21 2;
#X connect 21 0 27 0;
#X connect 21 1 32 0;
#X connect 23 0 25 0;
#X connect 24 0 15 0;
#X connect 24 1 17 0;
#X connect 24 2 18 0;
#X connect 25 0 24 0;
#X connect 26 0 0 0;
#X connect 27 0 28 0;
#X connect 28 0 29 0;
#X connect 29 0 26 0;
#X connect 30 0 27 1;
#X connect 31 0 32 1;
#X connect 32 0 28 1;
