#N canvas 587 100 651 524 10;
#X text 15 7 plucked~;
#X text 18 26 simple plucked string model;
#X text 12 65 plucked~ is a simple;
#X text 12 78 implementation of the karplus-;
#X text 12 91 strong plucked string;
#X text 12 104 algorithm. you control the;
#X text 12 117 amplitude and frequency of the;
#X text 14 131 model. a bang 'plucks' the;
#X text 12 143 instrument.;
#X obj 303 57 tgl 15 0 empty empty empty 0 -6 0 8 #fcfcfc #000000 #000000 0 1;
#X obj 303 84 metro 270;
#X obj 306 144 tabread mycoll;
#N canvas 0 0 450 300 (subpatch) 0;
#X array mycoll 16 float 1;
#A 0 0 45 52 57 52 55 57 45 60 0 59 0 57 0 57 57;
#X coords 0 72 15 0 100 70 1;
#X restore 492 273 graph;
#X obj 494 195 tabwrite mycoll;
#X obj 529 141 counter 0 16;
#X floatatom 487 99 5 0 0 0 - - - 0;
#X obj 529 119 bng 15 250 50 0 empty empty empty 0 -6 0 8 #fcfcfc #000000 #000000;
#X obj 323 199 mtof;
#X obj 235 26 loadbang;
#X msg 237 51 1;
#X obj 291 315 plucked~;
#X obj 287 279 bng 15 250 50 0 empty empty empty 0 -6 0 8 #fcfcfc #000000 #000000;
#X floatatom 307 280 5 0 0 0 - - - 0;
#X text 16 224 ported from the STK (by;
#X text 17 238 perry cook and gary scavone.);
#X text 23 302 by dan trueman \,;
#X text 24 316 computer music;
#X text 22 329 cnter \, columbia;
#X text 23 344 university;
#X obj 305 113 cyclone/counter 0 15;
#X obj 296 368 dac~;
#X connect 9 0 10 0;
#X connect 10 0 29 0;
#X connect 11 0 17 0;
#X connect 14 0 13 1;
#X connect 15 0 16 0;
#X connect 15 0 13 0;
#X connect 16 0 14 0;
#X connect 17 0 20 1;
#X connect 17 0 21 0;
#X connect 18 0 19 0;
#X connect 19 0 22 0;
#X connect 20 0 30 0;
#X connect 20 0 30 1;
#X connect 21 0 20 0;
#X connect 22 0 20 0;
#X connect 29 0 11 0;
