#N canvas 724 53 830 533 10;
#X obj 261 4 loadbang;
#X obj 261 27 bng 15 250 50 0 empty empty empty 0 -6 0 8 #fcfcfc #000000 #000000;
#X obj 261 76 unpack 0 0 0 0 0 0;
#X floatatom 261 251 5 0 0 0 - - - 0;
#X floatatom 261 167 5 0 0 0 - - - 0;
#X floatatom 324 167 5 0 0 0 - - - 0;
#X floatatom 324 251 5 0 0 0 - - - 0;
#X floatatom 388 255 5 0 0 0 - - - 0;
#X floatatom 452 251 5 0 0 0 - - - 0;
#X floatatom 516 251 5 0 0 0 - - - 0;
#X obj 580 219 mtof;
#X floatatom 580 250 5 0 0 0 - - - 0;
#X text 10 166 perry cook and gary scavone).;
#X text 10 158 ported from the STK (by;
#X text 13 237 by dan trueman \,;
#X text 12 246 computer music;
#X text 12 255 center \, columbia;
#X text 13 263 university;
#X floatatom 388 167 5 0 0 0 - - - 0;
#X floatatom 452 167 5 0 0 0 - - - 0;
#X floatatom 516 167 5 0 0 0 - - - 0;
#X floatatom 580 167 5 0 0 0 - - - 0;
#X text 576 142 frequency;
#X text 8 6 mandolin~;
#X text 8 20 plucked string mandolin model;
#X text 8 51 mandolin~ is a model of a;
#X text 9 61 plucked mandolin. a bang;
#X text 9 71 'plucks' the instrument. you;
#X text 8 80 can control plectrum position \,;
#X text 8 90 amplitude \, string damping \,;
#X text 8 99 detuning \, body size \, and;
#X text 8 109 frequency \, as well as mic;
#X text 8 118 positioning;
#X obj 261 288 mandolin~ ____________________________________________;
#X text 267 138 pluck;
#X text 266 150 amp;
#X text 325 140 pluck;
#X text 325 150 position;
#X text 387 141 string;
#X text 388 150 damping;
#X text 448 141 detuning;
#X text 518 138 body;
#X text 517 150 size;
#X msg 261 46 1 0.14 0.99 1 1.16 53;
#X floatatom 196 228 5 0 9 0 - - - 0;
#X obj 246 203 bng 15 250 50 0 empty empty empty 0 -6 0 8 #fcfcfc #000000 #000000;
#X msg 196 248 setmic \$1;
#X obj 684 44 tgl 15 0 empty empty empty 0 -6 0 8 #fcfcfc #000000 #000000 0 1;
#X obj 684 66 metro 140;
#N canvas 0 0 450 300 (subpatch) 0;
#X array mycoll 16 float 1;
#A 0 71 0 72 76 69 72 76 67 0 72 76 67 69 0 72 76;
#X coords 0 100 15 0 100 70 1;
#X restore 701 313 graph;
#X obj 684 114 tabread mycoll;
#X obj 684 135 sel 0;
#X obj 260 354 dac~;
#X obj 684 90 cyclone/counter 0 15;
#X connect 0 0 1 0;
#X connect 1 0 43 0;
#X connect 2 0 4 0;
#X connect 2 1 5 0;
#X connect 2 2 18 0;
#X connect 2 3 19 0;
#X connect 2 4 20 0;
#X connect 2 5 21 0;
#X connect 3 0 33 0;
#X connect 4 0 3 0;
#X connect 5 0 6 0;
#X connect 6 0 33 1;
#X connect 7 0 33 2;
#X connect 8 0 33 3;
#X connect 9 0 33 4;
#X connect 10 0 11 0;
#X connect 11 0 33 5;
#X connect 18 0 7 0;
#X connect 19 0 8 0;
#X connect 20 0 9 0;
#X connect 21 0 10 0;
#X connect 21 0 45 0;
#X connect 33 0 52 0;
#X connect 33 0 52 1;
#X connect 43 0 2 0;
#X connect 44 0 46 0;
#X connect 45 0 33 0;
#X connect 46 0 33 0;
#X connect 47 0 48 0;
#X connect 48 0 53 0;
#X connect 50 0 51 0;
#X connect 51 1 21 0;
#X connect 53 0 50 0;
