#N canvas 620 105 765 539 10;
#X text 10 186 perry cook and gary scavone).;
#X text 10 178 ported from the STK (by;
#X text 8 217 by dan trueman \,;
#X text 7 226 computer music;
#X text 7 235 center \, columbia;
#X text 8 243 university;
#X text 8 6 guiro~;
#X text 8 20 guiro model;
#X text 8 51 guiro~ is a physical model of;
#X text 9 61 a guiro. you can control the;
#X text 9 71 number of beads as well as the;
#X text 8 80 resonant frequencies of the;
#X text 9 90 instrument \, scrape position \,;
#X text 8 99 and scrape pressure. as with;
#X text 8 108 all physical models \, the signal;
#X text 9 118 level of the output fluctuates;
#X text 8 127 quite a bit \, so be careful.;
#X obj 382 54 hsl 140 8 0 1 0 0 empty empty empty -2 -6 0 8 #fcfcfc #000000 #000000 0 1;
#X text 378 33 set the starting scrape position;
#X floatatom 379 67 5 0 0 0 - - - 0;
#X obj 576 131 loadbang;
#X floatatom 298 186 5 0 0 0 - - - 0;
#X floatatom 538 186 5 0 0 0 - - - 0;
#X msg 299 148 81;
#X msg 538 148 95;
#X obj 298 208 mtof;
#X obj 538 207 mtof;
#X floatatom 298 279 5 0 0 0 - - - 0;
#X floatatom 538 279 5 0 0 0 - - - 0;
#X floatatom 219 279 5 0 0 0 - - - 0;
#X text 180 258 number of beads;
#X text 424 175 scrape velocity;
#X floatatom 458 190 5 0 0 0 - - - 0;
#X obj 458 261 * 1e-06;
#X floatatom 458 280 10 0 0 0 - - - 0;
#X msg 458 148 8;
#X msg 219 148 25;
#X floatatom 378 279 5 0 0 0 - - - 0;
#X obj 219 337 guiro~ _______________________________________________;
#X text 268 170 resonant freq 1;
#X text 560 172 resonant freq 2;
#X obj 220 431 dac~;
#X obj 289 380 else/meter~;
#X obj 108 306 bng 18 250 50 0 empty empty empty 0 -9 0 10 #fcfcfc #000000 #000000;
#X connect 17 0 19 0;
#X connect 19 0 37 0;
#X connect 20 0 23 0;
#X connect 20 0 24 0;
#X connect 20 0 35 0;
#X connect 20 0 36 0;
#X connect 21 0 25 0;
#X connect 22 0 26 0;
#X connect 23 0 21 0;
#X connect 24 0 22 0;
#X connect 25 0 27 0;
#X connect 26 0 28 0;
#X connect 27 0 38 1;
#X connect 28 0 38 4;
#X connect 29 0 38 0;
#X connect 32 0 33 0;
#X connect 33 0 34 0;
#X connect 34 0 38 3;
#X connect 35 0 32 0;
#X connect 36 0 29 0;
#X connect 37 0 38 2;
#X connect 38 0 42 0;
#X connect 43 0 38 0;
