#N canvas 23 49 828 531 10;
#X obj 261 4 loadbang;
#X obj 261 27 bng 15 250 50 0 empty empty empty 0 -6 0 8 -262144 -1
-1;
#X obj 261 76 unpack 0 0 0 0 0 0;
#X floatatom 261 210 5 0 0 0 - - -;
#X floatatom 284 284 0 0 100 0 - - -;
#N canvas 331 136 786 621 output 0;
#X obj 455 510 t b;
#X obj 455 450 f;
#X obj 455 390 inlet;
#X obj 455 540 f;
#X msg 566 532 0;
#X msg 455 420 bang;
#X obj 455 480 moses 1;
#X obj 566 502 t b f;
#X obj 535 460 moses 1;
#X obj 107 121 dbtorms;
#X obj 535 430 r master-lvl;
#X obj 107 28 r master-lvl;
#X obj 455 570 s master-lvl;
#X obj 36 228 inlet~;
#X obj 250 258 inlet;
#X obj 268 283 s master-lvl;
#X msg 119 57 set \$1;
#X obj 119 87 outlet;
#X msg 250 309 \; pd dsp 1;
#X obj 107 181 line~;
#X obj 36 258 *~;
#X obj 36 288 dac~;
#X obj 107 151 pack 0 50;
#X text 23 205 audio in;
#X text 2 313 out both channels;
#X text 273 182 Level input. Send to master-lvl and start DSP (we infer
that if you're changing the level you want to hear the network.) If
you start DSP when it's already running there's no effect.;
#X text 59 542 here is the previous nonzero master-lvl -->;
#X text 98 451 recall previous value of master-lvl -->;
#X text 239 482 test if less than 1 -->;
#X text 203 510 if true convert to bang -->;
#X text 218 351 Mute control. If the master level is zero \, restore
to the last nonzero one \, otherwise zero it.;
#X text 182 86 <-- update the number box to show new level;
#X text 178 120 <-- convert from dB to linear units;
#X text 196 150 <-- make a smooth ramp to avoid clicks or zipper noise
;
#X text 333 318 <-- automatically start DSP;
#X connect 0 0 3 0;
#X connect 1 0 6 0;
#X connect 2 0 5 0;
#X connect 3 0 12 0;
#X connect 4 0 12 0;
#X connect 5 0 1 0;
#X connect 6 0 0 0;
#X connect 6 1 7 0;
#X connect 7 0 4 0;
#X connect 8 1 3 1;
#X connect 9 0 22 0;
#X connect 10 0 1 1;
#X connect 10 0 8 0;
#X connect 11 0 9 0;
#X connect 11 0 16 0;
#X connect 13 0 20 0;
#X connect 14 0 15 0;
#X connect 14 0 18 0;
#X connect 16 0 17 0;
#X connect 19 0 20 1;
#X connect 20 0 21 0;
#X connect 20 0 21 1;
#X connect 22 0 19 0;
#X restore 260 305 pd output;
#X floatatom 261 167 5 0 0 0 - - -;
#X floatatom 324 167 5 0 0 0 - - -;
#X floatatom 324 210 5 0 0 0 - - -;
#X obj 388 186 * 0.01;
#X floatatom 388 211 5 0 0 0 - - -;
#X floatatom 452 210 5 0 0 0 - - -;
#X floatatom 516 210 5 0 0 0 - - -;
#X obj 580 186 mtof;
#X floatatom 580 210 5 0 0 0 - - -;
#X text 10 166 perry cook and gary scavone).;
#X text 10 158 ported from the STK (by;
#X text 13 237 by dan trueman \,;
#X text 12 246 computer music;
#X text 12 255 center \, columbia;
#X text 13 263 university;
#X msg 309 284 mute;
#X floatatom 388 167 5 0 0 0 - - -;
#X floatatom 452 167 5 0 0 0 - - -;
#X floatatom 516 167 5 0 0 0 - - -;
#X floatatom 580 167 5 0 0 0 - - -;
#X text 579 150 frequency;
#X text 388 150 gain;
#X text 518 138 vibrato;
#X text 8 6 flute~;
#X text 8 20 flute model;
#X text 8 51 flute~ is a physical model oof \,;
#X text 9 61 you guessed it \, a flute. you;
#X text 9 71 control breath pressure \, jet;
#X text 8 80 parameters \, amount of breath;
#X text 9 90 noise \, vibrato gain/frequency \,;
#X text 8 99 and overall frequency.;
#X msg 261 46 94 53 13 43 8 72;
#X text 267 138 breath;
#X text 266 150 pressure;
#X text 325 140 jet;
#X text 325 150 angle;
#X text 381 143 noise;
#X text 450 138 vibrato;
#X text 450 150 frequency;
#X text 517 150 gain;
#X text 579 138 flute;
#X obj 261 186 * 0.01;
#X obj 324 186 * 0.01;
#X obj 452 186 / 8;
#X obj 516 186 * 0.01;
#X obj 261 238 flute~ ____________________________________________
;
#X connect 0 0 1 0;
#X connect 1 0 37 0;
#X connect 2 0 6 0;
#X connect 2 1 7 0;
#X connect 2 2 22 0;
#X connect 2 3 23 0;
#X connect 2 4 24 0;
#X connect 2 5 25 0;
#X connect 3 0 51 0;
#X connect 4 0 5 1;
#X connect 5 0 4 0;
#X connect 6 0 47 0;
#X connect 7 0 48 0;
#X connect 8 0 51 1;
#X connect 9 0 10 0;
#X connect 10 0 51 2;
#X connect 11 0 51 3;
#X connect 12 0 51 4;
#X connect 13 0 14 0;
#X connect 14 0 51 5;
#X connect 21 0 5 2;
#X connect 22 0 9 0;
#X connect 23 0 49 0;
#X connect 24 0 50 0;
#X connect 25 0 13 0;
#X connect 37 0 2 0;
#X connect 47 0 3 0;
#X connect 48 0 8 0;
#X connect 49 0 11 0;
#X connect 50 0 12 0;
#X connect 51 0 5 0;
