#N canvas 396 164 478 328 10;
#X floatatom 106 114 5 0 0;
#X floatatom 119 132 5 0 0;
#X floatatom 131 151 5 0 0;
#X floatatom 144 169 5 0 0;
#X msg 45 45 bang;
#X text 153 112 number of objects;
#X text 159 130 resonance freq.;
#X text 174 149 shake damping;
#X text 194 168 shake max.;
#X obj 100 257 dac~;
#X text 82 45 zeroe delay lines;
#X obj 100 212 wuter~;
#X text 78 13 ----- wuter~ -----;
#X connect 0 0 11 0;
#X connect 1 0 11 1;
#X connect 2 0 11 2;
#X connect 3 0 11 3;
#X connect 4 0 11 0;
#X connect 11 0 9 0;
#X connect 11 1 9 1;
