#N canvas 0 0 816 653 10;
#X text 24 -29 computer music;
#X text 24 -20 center \, columbia;
#X text 25 -12 university;
#X floatatom 423 357 0 0 100 0 - - -;
#N canvas 331 136 786 621 output 0;
#X obj 455 510 t b;
#X obj 455 450 f;
#X obj 455 390 inlet;
#X obj 455 540 f;
#X msg 566 532 0;
#X msg 455 420 bang;
#X obj 455 480 moses 1;
#X obj 566 502 t b f;
#X obj 535 460 moses 1;
#X obj 107 121 dbtorms;
#X obj 535 430 r master-lvl;
#X obj 107 28 r master-lvl;
#X obj 455 570 s master-lvl;
#X obj 36 228 inlet~;
#X obj 250 258 inlet;
#X obj 268 283 s master-lvl;
#X msg 119 57 set \$1;
#X obj 119 87 outlet;
#X msg 250 309 \; pd dsp 1;
#X obj 107 181 line~;
#X obj 36 258 *~;
#X obj 36 288 dac~;
#X obj 107 151 pack 0 50;
#X text 23 205 audio in;
#X text 2 313 out both channels;
#X text 273 182 Level input. Send to master-lvl and start DSP (we infer
that if you're changing the level you want to hear the network.) If
you start DSP when it's already running there's no effect.;
#X text 59 542 here is the previous nonzero master-lvl -->;
#X text 98 451 recall previous value of master-lvl -->;
#X text 239 482 test if less than 1 -->;
#X text 203 510 if true convert to bang -->;
#X text 218 351 Mute control. If the master level is zero \, restore
to the last nonzero one \, otherwise zero it.;
#X text 182 86 <-- update the number box to show new level;
#X text 178 120 <-- convert from dB to linear units;
#X text 196 150 <-- make a smooth ramp to avoid clicks or zipper noise
;
#X text 333 318 <-- automatically start DSP;
#X connect 0 0 3 0;
#X connect 1 0 6 0;
#X connect 2 0 5 0;
#X connect 3 0 12 0;
#X connect 4 0 12 0;
#X connect 5 0 1 0;
#X connect 6 0 0 0;
#X connect 6 1 7 0;
#X connect 7 0 4 0;
#X connect 8 1 3 1;
#X connect 9 0 22 0;
#X connect 10 0 1 1;
#X connect 10 0 8 0;
#X connect 11 0 9 0;
#X connect 11 0 16 0;
#X connect 13 0 20 0;
#X connect 14 0 15 0;
#X connect 14 0 18 0;
#X connect 16 0 17 0;
#X connect 19 0 20 1;
#X connect 20 0 21 0;
#X connect 20 0 21 1;
#X connect 22 0 19 0;
#X restore 399 379 pd output;
#X msg 448 357 mute;
#X text 25 -38 by r. luke dubois \,;
#X obj 418 223 vsl 9 80 0 1 0 0 empty empty empty 0 -8 0 8 -262144
-1 -1 4600 1;
#X obj 399 311 *~ 1;
#X text 8 -191 terrain~;
#X text 8 -177 simple linear wavetable terrain interpolation.;
#X text 9 -144 terrain~ takes multiple 'frames' of a fixed;
#X text 8 -135 sample length in a table and treats them as;
#X text 8 -126 wavetables \, which can be interpolated through;
#X text 8 -118 by giving a value from 0 to 1 in the right inlet.;
#X text 8 -86 terrain~'s three arguments are the table to use;
#X text 8 -78 for a wavetable \, the size of the 'frame' and;
#X text 8 -70 the number of frames to interpolate through.;
#X obj 405 -157 loadbang;
#X msg 405 -133 offset 0 \, 1 0 0.2 \, offset 1 \, 0.2 1 0.5 \, offset
2 \, 1 0.5 0.2;
#X obj 405 -107 gen10 8192;
#X floatatom 405 -47 5 0 0 0 - - -;
#X floatatom 460 -47 10 0 0 0 - - -;
#X obj 405 -80 unpack f f;
#N canvas 0 0 450 300 graph2 0;
#X array wavetable 8192 float 0;
#X coords 0 1 8191 -1 100 70 1;
#X restore 607 -95 graph;
#X obj 404 -21 tabwrite wavetable;
#X obj 398 200 terrain~ wavetable 8192 3;
#X obj 398 180 phasor~ 200;
#X floatatom 398 163 5 0 0 0 - - -;
#X floatatom 542 142 5 0 0 0 - - -;
#X obj 542 159 osc~ 0.1;
#X floatatom 188 127 5 0 0 0 - - -;
#X msg 188 144 size \$1;
#X floatatom 244 127 5 0 0 0 - - -;
#X msg 244 144 frames \$1;
#X text 149 86 size and frame messages let;
#X text 149 95 you change the table size and;
#X text 149 104 number of frames dynamically.;
#X text 397 128 wavetable;
#X text 397 137 scanning;
#X text 397 146 frequency;
#X text 540 114 frequency to scan;
#X text 540 124 through terrain;
#X obj 542 179 absmax~ 0;
#X connect 3 0 4 1;
#X connect 4 0 3 0;
#X connect 5 0 4 2;
#X connect 7 0 8 1;
#X connect 8 0 4 0;
#X connect 18 0 19 0;
#X connect 19 0 20 0;
#X connect 20 0 23 0;
#X connect 21 0 25 1;
#X connect 22 0 25 0;
#X connect 23 0 21 0;
#X connect 23 1 22 0;
#X connect 26 0 8 0;
#X connect 27 0 26 0;
#X connect 28 0 27 0;
#X connect 29 0 30 0;
#X connect 30 0 43 0;
#X connect 31 0 32 0;
#X connect 32 0 26 0;
#X connect 33 0 34 0;
#X connect 34 0 26 0;
#X connect 43 0 26 1;
