#N canvas 0 0 862 555 10;
#X floatatom 326 423 0 0 100 0 - - -;
#N canvas 331 136 786 621 output 0;
#X obj 455 510 t b;
#X obj 455 450 f;
#X obj 455 390 inlet;
#X obj 455 540 f;
#X msg 566 532 0;
#X msg 455 420 bang;
#X obj 455 480 moses 1;
#X obj 566 502 t b f;
#X obj 535 460 moses 1;
#X obj 107 121 dbtorms;
#X obj 535 430 r master-lvl;
#X obj 107 28 r master-lvl;
#X obj 455 570 s master-lvl;
#X obj 36 228 inlet~;
#X obj 250 258 inlet;
#X obj 268 283 s master-lvl;
#X msg 119 57 set \$1;
#X obj 119 87 outlet;
#X msg 250 309 \; pd dsp 1;
#X obj 107 181 line~;
#X obj 36 258 *~;
#X obj 36 288 dac~;
#X obj 107 151 pack 0 50;
#X text 23 205 audio in;
#X text 2 313 out both channels;
#X text 273 182 Level input. Send to master-lvl and start DSP (we infer
that if you're changing the level you want to hear the network.) If
you start DSP when it's already running there's no effect.;
#X text 59 542 here is the previous nonzero master-lvl -->;
#X text 98 451 recall previous value of master-lvl -->;
#X text 239 482 test if less than 1 -->;
#X text 203 510 if true convert to bang -->;
#X text 218 351 Mute control. If the master level is zero \, restore
to the last nonzero one \, otherwise zero it.;
#X text 182 86 <-- update the number box to show new level;
#X text 178 120 <-- convert from dB to linear units;
#X text 196 150 <-- make a smooth ramp to avoid clicks or zipper noise
;
#X text 333 318 <-- automatically start DSP;
#X connect 0 0 3 0;
#X connect 1 0 6 0;
#X connect 2 0 5 0;
#X connect 3 0 12 0;
#X connect 4 0 12 0;
#X connect 5 0 1 0;
#X connect 6 0 0 0;
#X connect 6 1 7 0;
#X connect 7 0 4 0;
#X connect 8 1 3 1;
#X connect 9 0 22 0;
#X connect 10 0 1 1;
#X connect 10 0 8 0;
#X connect 11 0 9 0;
#X connect 11 0 16 0;
#X connect 13 0 20 0;
#X connect 14 0 15 0;
#X connect 14 0 18 0;
#X connect 16 0 17 0;
#X connect 19 0 20 1;
#X connect 20 0 21 0;
#X connect 20 0 21 1;
#X connect 22 0 19 0;
#X restore 302 445 pd output;
#X msg 351 422 mute;
#X text 16 224 ported from the STK (by;
#X text 16 234 perry cook and gary scavone.);
#X text 23 302 by dan trueman \,;
#X text 22 313 computer music;
#X text 23 334 university;
#X text 15 7 cabasa~;
#X text 15 19 cabasa model;
#X text 22 324 center \, columbia;
#X text 12 65 cabasa~ models a cabasa. you;
#X text 11 76 control the number of beads \,;
#X text 12 87 damping \, energy \, and the;
#X text 12 98 resonant frequency for the;
#X text 12 109 model.;
#X obj 262 80 bng 15 250 50 0 empty empty empty 0 -6 0 8 -262144 -1
-1;
#X text 280 79 sero delay lines;
#X floatatom 302 99 5 0 0 0 - - -;
#X text 339 96 number of beads;
#X obj 654 124 hsl 128 9 48 95 0 0 empty empty empty -2 -6 0 8 -262144
-1 -1 5185 1;
#X text 649 101 resonant frequency;
#X obj 651 138 mtof;
#X floatatom 651 158 5 0 0 0 - - -;
#X obj 421 125 hsl 128 9 0 1 0 0 empty empty empty -2 -6 0 8 -262144
-1 -1 6590 1;
#X obj 537 228 hsl 128 9 0 0.25 0 0 empty empty empty -2 -6 0 8 -262144
-1 -1 0 1;
#X text 417 106 damping (0-1);
#X text 541 211 energy (0- 0.25);
#X floatatom 418 138 5 0 0 0 - - -;
#X floatatom 534 243 5 0 0 0 - - -;
#X obj 247 13 loadbang;
#X msg 302 30 100;
#X msg 651 30 72;
#X msg 418 30 0.7;
#X msg 534 30 0.07;
#X obj 302 397 cabasa~ ___________________________________________________
;
#X connect 0 0 1 1;
#X connect 1 0 0 0;
#X connect 2 0 1 2;
#X connect 16 0 35 0;
#X connect 18 0 35 0;
#X connect 20 0 22 0;
#X connect 22 0 23 0;
#X connect 23 0 35 3;
#X connect 24 0 28 0;
#X connect 25 0 29 0;
#X connect 28 0 35 1;
#X connect 29 0 35 2;
#X connect 30 0 31 0;
#X connect 30 0 32 0;
#X connect 30 0 33 0;
#X connect 30 0 34 0;
#X connect 31 0 18 0;
#X connect 32 0 20 0;
#X connect 33 0 24 0;
#X connect 34 0 25 0;
#X connect 35 0 1 0;
