#N canvas 0 0 1009 677 10;
#X text 10 200 by dan trueman \,;
#X text 9 209 computer music;
#X text 9 218 center \, columbia;
#X text 10 226 university;
#X text 429 1 send some messages...;
#X floatatom 431 19 5 0 0 0 - - -;
#X floatatom 436 96 5 0 0 0 - - -;
#X floatatom 439 199 5 0 0 0 - - -;
#X floatatom 443 362 5 0 0 0 - - -;
#X obj 281 399 r msgs;
#X obj 396 198 s msgs;
#X msg 83 316 1;
#X msg 88 335 2;
#X text 26 263 select a sound source;
#N canvas 0 0 475 364 choose 0;
#X obj 78 50 inlet;
#X msg 108 122 1 0 0;
#X msg 114 143 0 1 0;
#X obj 240 52 inlet~;
#X obj 302 52 inlet~;
#X obj 240 223 *~ 0;
#X obj 303 221 *~ 0;
#X obj 239 284 +~;
#X obj 238 330 outlet~;
#X floatatom 121 223 5 0 0 0 - - -;
#X floatatom 156 221 5 0 0 0 - - -;
#X obj 94 93 sel 1 2;
#X obj 138 188 unpack 0 0;
#X connect 0 0 11 0;
#X connect 1 0 12 0;
#X connect 2 0 12 0;
#X connect 3 0 5 0;
#X connect 4 0 6 0;
#X connect 5 0 7 0;
#X connect 6 0 7 1;
#X connect 7 0 8 0;
#X connect 11 0 1 0;
#X connect 11 1 2 0;
#X connect 12 0 5 1;
#X connect 12 0 9 0;
#X connect 12 1 6 1;
#X connect 12 1 10 0;
#X restore 202 383 pd choose;
#X obj 229 45 bng 15 250 50 0 empty empty empty 0 -6 0 8 -262144 -1
-1;
#X obj 229 63 openpanel;
#X obj 229 102 soundfiler;
#N canvas 0 0 450 300 graph3 0;
#X array mysample 151193 float 0;
#X coords 0 1 151192 -1 100 70 1;
#X restore 290 1 graph;
#X obj 348 284 adc~;
#X msg 229 82 read -resize \$1 mysample;
#X floatatom 228 158 12 0 0 0 - - -;
#X obj 228 239 phasor~;
#X floatatom 228 122 20 0 0 0 - - -;
#X obj 228 138 expr (60000/$f1);
#X obj 228 195 f;
#X obj 228 176 bng 15 250 50 0 empty empty empty 0 -6 0 8 -262144 -1
-1;
#X obj 228 218 * 1;
#X text 291 108 length in samples;
#X obj 83 294 loadbang;
#X obj 170 305 snapshot~;
#X floatatom 170 328 5 0 0 0 - - -;
#X obj 170 281 metro 20;
#X obj 169 259 tgl 15 0 empty empty empty 0 -6 0 8 -262144 -1 -1 0
1;
#X obj 227 284 tabread4~ mysample;
#X text 8 6 scrub~;
#X text 8 20 delay line scrubber;
#X text 11 51 scrub~ varies a delay line by;
#X text 9 61 the rate given in the right;
#X text 9 71 inlet.;
#X text 9 80 if you think abut it \, scrubbing;
#X text 9 89 a delay line is kinda tricky.;
#X text 9 98 this object uses three buffers;
#X text 9 107 to avoid clicking \, etc.;
#X text 9 116 this scheme in itself can result;
#X text 9 125 in interesting effects.;
#X obj 236 416 scrub~;
#X msg 431 35 delay \$1;
#X msg 436 112 ramp \$1;
#X text 518 34 set the maximum delay time (up to;
#X text 516 44 3000ms \, which is the default);
#X text 516 98 this determines how long to ramp (in;
#X text 514 108 ms) when switching buffers while;
#X text 514 118 recording (100ms \, by default);
#X msg 439 215 overlap \$1;
#X text 519 200 this sets the overlap time (in ms) when;
#X text 517 210 switching buffers on playback (100ms \,;
#X text 517 220 by default);
#X msg 441 259 zero;
#X text 521 259 zero out the delay line;
#X text 523 388 scrub rate (yank this);
#X obj 472 295 tgl 15 0 empty empty empty 0 -6 0 8 -262144 -1 -1 0
1;
#X msg 472 316 power \$1;
#X text 537 314 turn scrub on or off;
#X floatatom 225 597 0 0 100 0 - - -;
#N canvas 331 136 786 621 output 0;
#X obj 455 510 t b;
#X obj 455 450 f;
#X obj 455 390 inlet;
#X obj 455 540 f;
#X msg 566 532 0;
#X msg 455 420 bang;
#X obj 455 480 moses 1;
#X obj 566 502 t b f;
#X obj 535 460 moses 1;
#X obj 107 121 dbtorms;
#X obj 535 430 r master-lvl;
#X obj 107 28 r master-lvl;
#X obj 455 570 s master-lvl;
#X obj 36 228 inlet~;
#X obj 250 258 inlet;
#X obj 268 283 s master-lvl;
#X msg 119 57 set \$1;
#X obj 119 87 outlet;
#X msg 250 309 \; pd dsp 1;
#X obj 107 181 line~;
#X obj 36 258 *~;
#X obj 36 288 dac~;
#X obj 107 151 pack 0 50;
#X text 23 205 audio in;
#X text 2 313 out both channels;
#X text 273 182 Level input. Send to master-lvl and start DSP (we infer
that if you're changing the level you want to hear the network.) If
you start DSP when it's already running there's no effect.;
#X text 59 542 here is the previous nonzero master-lvl -->;
#X text 98 451 recall previous value of master-lvl -->;
#X text 239 482 test if less than 1 -->;
#X text 203 510 if true convert to bang -->;
#X text 218 351 Mute control. If the master level is zero \, restore
to the last nonzero one \, otherwise zero it.;
#X text 182 86 <-- update the number box to show new level;
#X text 178 120 <-- convert from dB to linear units;
#X text 196 150 <-- make a smooth ramp to avoid clicks or zipper noise
;
#X text 333 318 <-- automatically start DSP;
#X connect 0 0 3 0;
#X connect 1 0 6 0;
#X connect 2 0 5 0;
#X connect 3 0 12 0;
#X connect 4 0 12 0;
#X connect 5 0 1 0;
#X connect 6 0 0 0;
#X connect 6 1 7 0;
#X connect 7 0 4 0;
#X connect 8 1 3 1;
#X connect 9 0 22 0;
#X connect 10 0 1 1;
#X connect 10 0 8 0;
#X connect 11 0 9 0;
#X connect 11 0 16 0;
#X connect 13 0 20 0;
#X connect 14 0 15 0;
#X connect 14 0 18 0;
#X connect 16 0 17 0;
#X connect 19 0 20 1;
#X connect 20 0 21 0;
#X connect 20 0 21 1;
#X connect 22 0 19 0;
#X restore 201 619 pd output;
#X msg 250 597 mute;
#X obj 222 465 vsl 9 80 0 1 0 0 empty empty empty 0 -8 0 8 -262144
-1 -1 0 1;
#X obj 203 551 *~ 1;
#X obj 202 597 +~;
#X obj 254 464 vsl 9 80 0 1 0 0 empty empty empty 0 -8 0 8 -262144
-1 -1 0 1;
#X obj 235 551 *~ 1;
#X text 217 448 dry;
#X text 249 447 wet;
#X text 40 314 sample;
#X text 56 334 adc;
#X obj 227 262 *~ 88200;
#X msg 442 391 delay \$1;
#X connect 5 0 47 0;
#X connect 6 0 48 0;
#X connect 7 0 54 0;
#X connect 8 0 77 0;
#X connect 9 0 46 0;
#X connect 11 0 14 0;
#X connect 12 0 14 0;
#X connect 14 0 46 0;
#X connect 14 0 68 0;
#X connect 15 0 16 0;
#X connect 16 0 20 0;
#X connect 17 0 23 0;
#X connect 19 0 14 2;
#X connect 20 0 17 0;
#X connect 21 0 25 1;
#X connect 21 0 26 0;
#X connect 21 0 22 1;
#X connect 22 0 76 0;
#X connect 23 0 24 0;
#X connect 24 0 21 0;
#X connect 25 0 27 0;
#X connect 26 0 25 0;
#X connect 27 0 22 0;
#X connect 29 0 11 0;
#X connect 30 0 31 0;
#X connect 32 0 30 0;
#X connect 33 0 32 0;
#X connect 34 0 30 0;
#X connect 34 0 14 1;
#X connect 46 0 71 0;
#X connect 47 0 10 0;
#X connect 48 0 10 0;
#X connect 54 0 10 0;
#X connect 58 0 10 0;
#X connect 61 0 62 0;
#X connect 62 0 10 0;
#X connect 64 0 65 1;
#X connect 65 0 64 0;
#X connect 66 0 65 2;
#X connect 67 0 68 1;
#X connect 68 0 69 0;
#X connect 69 0 65 0;
#X connect 70 0 71 1;
#X connect 71 0 69 1;
#X connect 76 0 34 0;
#X connect 77 0 10 0;
