#N canvas 396 164 474 324 10;
#X floatatom 106 114 5 0 0;
#X floatatom 119 132 5 20 20000;
#X floatatom 131 151 5 0 0;
#X floatatom 144 169 5 0 0;
#X msg 45 45 bang;
#X text 153 112 number of objects;
#X text 159 130 resonance freq.;
#X text 174 149 shake damping;
#X text 207 188 shake max.;
#X obj 100 257 dac~;
#X text 82 45 zeroe delay lines;
#X text 78 13 ----- shaker~ -----;
#X obj 100 212 shaker~;
#X floatatom 158 189 5 0 0;
#X text 190 169 shake speed;
#X connect 0 0 12 0;
#X connect 1 0 12 1;
#X connect 2 0 12 2;
#X connect 3 0 12 3;
#X connect 4 0 12 0;
#X connect 12 0 9 0;
#X connect 12 0 9 1;
#X connect 13 0 12 4;
