#N canvas 631 40 832 535 10;
#X text 10 166 perry cook and gary scavone).;
#X text 10 158 ported from the STK (by;
#X text 13 237 by dan trueman \,;
#X text 12 246 computer music;
#X text 12 255 center \, columbia;
#X text 13 263 university;
#X text 8 6 marimba~;
#X text 8 20 marimba model;
#X text 8 51 marimba is a physical;
#X text 9 61 synthesis model of a struck;
#X text 9 71 marimba. you have control;
#X text 8 80 over the parameters of the;
#X text 8 90 marimba and the stick you hit;
#X text 8 99 it with.;
#X obj 378 39 vsl 15 128 0 1 0 0 empty empty empty 0 -8 0 8 #fcfcfc #000000 #000000 0 1;
#X floatatom 378 225 5 0 0 0 - - - 0;
#X obj 433 39 vsl 15 128 0 1 0 0 empty empty empty 0 -8 0 8 #fcfcfc #000000 #000000 0 1;
#X floatatom 433 226 5 0 0 0 - - - 0;
#X obj 488 39 vsl 15 128 0 1 0 0 empty empty empty 0 -8 0 8 #fcfcfc #000000 #000000 0 1;
#X floatatom 488 228 5 0 0 0 - - - 0;
#X obj 544 39 vsl 15 128 0 10 0 0 empty empty empty 0 -8 0 8 #fcfcfc #000000 #000000 0 1;
#X floatatom 544 227 5 0 0 0 - - - 0;
#X obj 599 39 vsl 15 128 0 1 0 0 empty empty empty 0 -8 0 8 #fcfcfc #000000 #000000 0 1;
#X floatatom 599 227 5 0 0 0 - - - 0;
#X obj 655 39 vsl 15 128 0 127 0 0 empty empty empty 0 -8 0 8 #fcfcfc #000000 #000000 0 1;
#X floatatom 655 226 5 0 0 0 - - - 0;
#X msg 262 235 noteon;
#X msg 306 235 noteoff;
#X obj 378 -7 hdl 15 1 0 3 empty empty empty 0 -6 0 8 #fcfcfc #000000 #000000 0;
#X text 380 -27 try these presets;
#X obj 655 245 mtof;
#X floatatom 655 271 5 0 0 0 - - - 0;
#X text 381 192 stick;
#X text 381 203 hardness;
#X text 437 193 stick;
#X text 437 204 position;
#X text 493 195 amplitude;
#X text 553 193 vib;
#X text 553 204 freq;
#X text 605 194 vib;
#X text 605 205 gain;
#X text 658 193 frequency;
#X obj 378 307 marimba~ ______________________________________;
#N canvas 389 265 541 344 mypresets 0;
#X obj 2 2 inlet;
#X obj 17 299 outlet;
#X obj 55 299 outlet;
#X obj 93 299 outlet;
#X obj 131 299 outlet;
#X obj 169 299 outlet;
#X obj 207 299 outlet;
#X obj 2 21 sel 0 1 2;
#X obj 16 266 unpack 0 0 0 0 0 0;
#X msg 2 45 0.99 0.99 0.99 0 0 69;
#X connect 0 0 7 0;
#X connect 7 0 9 0;
#X connect 8 0 1 0;
#X connect 8 1 2 0;
#X connect 8 2 3 0;
#X connect 8 3 4 0;
#X connect 8 4 5 0;
#X connect 8 5 6 0;
#X connect 9 0 8 0;
#X restore 378 15 pd mypresets __________________________________;
#X obj 377 372 dac~;
#X connect 14 0 15 0;
#X connect 15 0 42 0;
#X connect 16 0 17 0;
#X connect 17 0 42 1;
#X connect 18 0 19 0;
#X connect 19 0 42 2;
#X connect 20 0 21 0;
#X connect 21 0 42 3;
#X connect 22 0 23 0;
#X connect 23 0 42 4;
#X connect 24 0 25 0;
#X connect 25 0 30 0;
#X connect 26 0 42 0;
#X connect 27 0 42 0;
#X connect 28 0 43 0;
#X connect 30 0 31 0;
#X connect 31 0 42 5;
#X connect 42 0 44 0;
#X connect 42 0 44 1;
#X connect 43 0 14 0;
#X connect 43 1 16 0;
#X connect 43 2 18 0;
#X connect 43 3 20 0;
#X connect 43 4 22 0;
#X connect 43 5 24 0;
