#N canvas 62 49 741 556 10;
#X floatatom 370 292 0 0 100 0 - - -;
#X msg 398 292 mute;
#X text 17 198 computer music;
#X text 17 207 center \, columbia;
#X text 18 215 university;
#X text 18 189 by r. luke dubois \,;
#N canvas 331 136 798 633 outputs 0;
#X obj 455 510 t b;
#X obj 455 450 f;
#X obj 455 390 inlet;
#X obj 455 540 f;
#X msg 566 532 0;
#X msg 455 420 bang;
#X obj 455 480 moses 1;
#X obj 566 502 t b f;
#X obj 535 460 moses 1;
#X obj 107 121 dbtorms;
#X obj 535 430 r master-lvl;
#X obj 107 28 r master-lvl;
#X obj 455 570 s master-lvl;
#X obj 36 228 inlet~;
#X obj 250 258 inlet;
#X obj 268 283 s master-lvl;
#X msg 119 57 set \$1;
#X obj 119 87 outlet;
#X msg 250 309 \; pd dsp 1;
#X obj 107 181 line~;
#X obj 36 258 *~;
#X obj 36 288 dac~;
#X obj 107 151 pack 0 50;
#X text 23 205 audio in;
#X text 2 313 out both channels;
#X text 273 182 Level input. Send to master-lvl and start DSP (we infer
that if you're changing the level you want to hear the network.) If
you start DSP when it's already running there's no effect.;
#X text 59 542 here is the previous nonzero master-lvl -->;
#X text 98 451 recall previous value of master-lvl -->;
#X text 239 482 test if less than 1 -->;
#X text 203 510 if true convert to bang -->;
#X text 218 351 Mute control. If the master level is zero \, restore
to the last nonzero one \, otherwise zero it.;
#X text 182 86 <-- update the number box to show new level;
#X text 178 120 <-- convert from dB to linear units;
#X text 196 150 <-- make a smooth ramp to avoid clicks or zipper noise
;
#X text 333 318 <-- automatically start DSP;
#X connect 0 0 3 0;
#X connect 1 0 6 0;
#X connect 2 0 5 0;
#X connect 3 0 12 0;
#X connect 4 0 12 0;
#X connect 5 0 1 0;
#X connect 6 0 0 0;
#X connect 6 1 7 0;
#X connect 7 0 4 0;
#X connect 8 1 3 1;
#X connect 9 0 22 0;
#X connect 10 0 1 1;
#X connect 10 0 8 0;
#X connect 11 0 9 0;
#X connect 11 0 16 0;
#X connect 13 0 20 0;
#X connect 14 0 15 0;
#X connect 14 0 18 0;
#X connect 16 0 17 0;
#X connect 19 0 20 1;
#X connect 20 0 21 0;
#X connect 20 0 21 1;
#X connect 22 0 19 0;
#X restore 343 314 pd outputs;
#X text 12 2 jitter~;
#X text 12 16 signal randomizer.;
#X text 13 42 jitter~ takes the incoming vector;
#X text 14 52 and randomizes it by the range specified;
#X text 14 62 as its argument (or by the 'range n';
#X text 14 81 signal are the incoming signal +/- the;
#X text 14 90 range. by default jitter~ randomizes;
#X text 14 98 at audio rate. a second argument of 1 or;
#X text 14 107 the message 'manual 1' makes it so it;
#X text 14 116 generates a new random amount to be added;
#X text 14 125 to the input signal when it receives a;
#X text 16 134 bang.;
#X text 13 71 message.) the boundaries of the output;
#X floatatom 342 115 5 0 0 0 - - -;
#X obj 342 136 sig~;
#X obj 342 184 osc~ 200;
#X obj 342 160 jitter~ 50;
#X obj 457 47 tgl 15 0 empty empty empty 0 -6 0 8 -262144 -1 -1 0 1
;
#X msg 457 66 manual \$1;
#X obj 342 37 loadbang;
#X msg 342 60 220;
#X obj 502 46 bng 15 250 50 0 empty empty empty 0 -6 0 8 -262144 -1
-1;
#X floatatom 521 47 9 0 0 0 - - -;
#X obj 521 66 sig~;
#X obj 520 113 jitter~ 0.01 1;
#X obj 613 133 metro 20;
#X obj 613 112 tgl 15 0 empty empty empty 0 -6 0 8 -262144 -1 -1 1
1;
#X obj 520 150 snapshot~;
#X floatatom 520 175 9 0 0 0 - - -;
#X obj 613 90 loadbang;
#X floatatom 528 221 9 0 0 0 - - -;
#X obj 528 240 sig~;
#X obj 620 307 metro 20;
#X obj 620 286 tgl 15 0 empty empty empty 0 -6 0 8 -262144 -1 -1 1
1;
#X obj 527 324 snapshot~;
#X floatatom 527 349 9 0 0 0 - - -;
#X obj 620 264 loadbang;
#X floatatom 468 221 5 0 0 0 - - -;
#X msg 468 239 range \$1;
#X obj 528 287 jitter~ 5;
#X connect 0 0 6 1;
#X connect 1 0 6 2;
#X connect 6 0 0 0;
#X connect 20 0 21 0;
#X connect 21 0 23 0;
#X connect 22 0 6 0;
#X connect 23 0 22 0;
#X connect 24 0 25 0;
#X connect 25 0 31 0;
#X connect 26 0 27 0;
#X connect 27 0 20 0;
#X connect 28 0 31 0;
#X connect 29 0 30 0;
#X connect 30 0 31 0;
#X connect 31 0 34 0;
#X connect 32 0 34 0;
#X connect 33 0 32 0;
#X connect 34 0 35 0;
#X connect 36 0 33 0;
#X connect 37 0 38 0;
#X connect 38 0 46 0;
#X connect 39 0 41 0;
#X connect 40 0 39 0;
#X connect 41 0 42 0;
#X connect 43 0 40 0;
#X connect 44 0 45 0;
#X connect 45 0 46 0;
#X connect 46 0 41 0;
