#N canvas 46 28 680 464 10;
#X floatatom 370 292 0 0 100 0 - - -;
#X msg 398 292 mute;
#X text 17 198 computer music;
#X text 17 207 center \, columbia;
#X text 18 215 university;
#X text 18 189 by r. luke dubois \,;
#N canvas 331 136 798 633 outputs 0;
#X obj 455 510 t b;
#X obj 455 450 f;
#X obj 455 390 inlet;
#X obj 455 540 f;
#X msg 566 532 0;
#X msg 455 420 bang;
#X obj 455 480 moses 1;
#X obj 566 502 t b f;
#X obj 535 460 moses 1;
#X obj 107 121 dbtorms;
#X obj 535 430 r master-lvl;
#X obj 107 28 r master-lvl;
#X obj 455 570 s master-lvl;
#X obj 36 228 inlet~;
#X obj 250 258 inlet;
#X obj 268 283 s master-lvl;
#X msg 119 57 set \$1;
#X obj 119 87 outlet;
#X msg 250 309 \; pd dsp 1;
#X obj 107 181 line~;
#X obj 36 258 *~;
#X obj 36 288 dac~;
#X obj 107 151 pack 0 50;
#X text 23 205 audio in;
#X text 2 313 out both channels;
#X text 273 182 Level input. Send to master-lvl and start DSP (we infer
that if you're changing the level you want to hear the network.) If
you start DSP when it's already running there's no effect.;
#X text 59 542 here is the previous nonzero master-lvl -->;
#X text 98 451 recall previous value of master-lvl -->;
#X text 239 482 test if less than 1 -->;
#X text 203 510 if true convert to bang -->;
#X text 218 351 Mute control. If the master level is zero \, restore
to the last nonzero one \, otherwise zero it.;
#X text 182 86 <-- update the number box to show new level;
#X text 178 120 <-- convert from dB to linear units;
#X text 196 150 <-- make a smooth ramp to avoid clicks or zipper noise
;
#X text 333 318 <-- automatically start DSP;
#X connect 0 0 3 0;
#X connect 1 0 6 0;
#X connect 2 0 5 0;
#X connect 3 0 12 0;
#X connect 4 0 12 0;
#X connect 5 0 1 0;
#X connect 6 0 0 0;
#X connect 6 1 7 0;
#X connect 7 0 4 0;
#X connect 8 1 3 1;
#X connect 9 0 22 0;
#X connect 10 0 1 1;
#X connect 10 0 8 0;
#X connect 11 0 9 0;
#X connect 11 0 16 0;
#X connect 13 0 20 0;
#X connect 14 0 15 0;
#X connect 14 0 18 0;
#X connect 16 0 17 0;
#X connect 19 0 20 1;
#X connect 20 0 21 0;
#X connect 20 0 21 1;
#X connect 22 0 19 0;
#X restore 343 314 pd outputs;
#X text 12 2 klutz~;
#X obj 343 244 klutz~;
#X text 12 16 reverses sample in a vector block;
#X text 13 42 klutz~ reverses the order of;
#X text 12 53 samples in a signal vector.;
#X text 12 63 conceivably this could sound;
#X text 12 72 sort of interesting.;
#X obj 343 211 osc~ 200;
#X connect 0 0 6 1;
#X connect 1 0 6 2;
#X connect 6 0 0 0;
#X connect 8 0 6 0;
#X connect 14 0 8 0;
