#N canvas 23 49 830 533 10;
#X obj 261 4 loadbang;
#X obj 261 27 bng 15 250 50 0 empty empty empty 0 -6 0 8 -262144 -1
-1;
#X obj 261 76 unpack 0 0 0 0 0 0;
#X floatatom 261 251 5 0 0 0 - - -;
#X floatatom 284 333 0 0 100 0 - - -;
#N canvas 331 136 786 621 output 0;
#X obj 455 510 t b;
#X obj 455 450 f;
#X obj 455 390 inlet;
#X obj 455 540 f;
#X msg 566 532 0;
#X msg 455 420 bang;
#X obj 455 480 moses 1;
#X obj 566 502 t b f;
#X obj 535 460 moses 1;
#X obj 107 121 dbtorms;
#X obj 535 430 r master-lvl;
#X obj 107 28 r master-lvl;
#X obj 455 570 s master-lvl;
#X obj 36 228 inlet~;
#X obj 250 258 inlet;
#X obj 268 283 s master-lvl;
#X msg 119 57 set \$1;
#X obj 119 87 outlet;
#X msg 250 309 \; pd dsp 1;
#X obj 107 181 line~;
#X obj 36 258 *~;
#X obj 36 288 dac~;
#X obj 107 151 pack 0 50;
#X text 23 205 audio in;
#X text 2 313 out both channels;
#X text 273 182 Level input. Send to master-lvl and start DSP (we infer
that if you're changing the level you want to hear the network.) If
you start DSP when it's already running there's no effect.;
#X text 59 542 here is the previous nonzero master-lvl -->;
#X text 98 451 recall previous value of master-lvl -->;
#X text 239 482 test if less than 1 -->;
#X text 203 510 if true convert to bang -->;
#X text 218 351 Mute control. If the master level is zero \, restore
to the last nonzero one \, otherwise zero it.;
#X text 182 86 <-- update the number box to show new level;
#X text 178 120 <-- convert from dB to linear units;
#X text 196 150 <-- make a smooth ramp to avoid clicks or zipper noise
;
#X text 333 318 <-- automatically start DSP;
#X connect 0 0 3 0;
#X connect 1 0 6 0;
#X connect 2 0 5 0;
#X connect 3 0 12 0;
#X connect 4 0 12 0;
#X connect 5 0 1 0;
#X connect 6 0 0 0;
#X connect 6 1 7 0;
#X connect 7 0 4 0;
#X connect 8 1 3 1;
#X connect 9 0 22 0;
#X connect 10 0 1 1;
#X connect 10 0 8 0;
#X connect 11 0 9 0;
#X connect 11 0 16 0;
#X connect 13 0 20 0;
#X connect 14 0 15 0;
#X connect 14 0 18 0;
#X connect 16 0 17 0;
#X connect 19 0 20 1;
#X connect 20 0 21 0;
#X connect 20 0 21 1;
#X connect 22 0 19 0;
#X restore 260 354 pd output;
#X floatatom 261 167 5 0 0 0 - - -;
#X floatatom 324 167 5 0 0 0 - - -;
#X floatatom 324 251 5 0 0 0 - - -;
#X floatatom 388 255 5 0 0 0 - - -;
#X floatatom 452 251 5 0 0 0 - - -;
#X floatatom 516 251 5 0 0 0 - - -;
#X obj 580 219 mtof;
#X floatatom 580 250 5 0 0 0 - - -;
#X text 10 166 perry cook and gary scavone).;
#X text 10 158 ported from the STK (by;
#X text 13 237 by dan trueman \,;
#X text 12 246 computer music;
#X text 12 255 center \, columbia;
#X text 13 263 university;
#X msg 309 333 mute;
#X floatatom 388 167 5 0 0 0 - - -;
#X floatatom 452 167 5 0 0 0 - - -;
#X floatatom 516 167 5 0 0 0 - - -;
#X floatatom 580 167 5 0 0 0 - - -;
#X text 576 142 frequency;
#X text 8 6 mandolin~;
#X text 8 20 plucked string mandolin model;
#X text 8 51 mandolin~ is a model of a;
#X text 9 61 plucked mandolin. a bang;
#X text 9 71 'plucks' the instrument. you;
#X text 8 80 can control plectrum position \,;
#X text 8 90 amplitude \, string damping \,;
#X text 8 99 detuning \, body size \, and;
#X text 8 109 frequency \, as well as mic;
#X text 8 118 positioning;
#X obj 261 288 mandolin~ ____________________________________________
;
#X text 267 138 pluck;
#X text 266 150 amp;
#X text 325 140 pluck;
#X text 325 150 position;
#X text 387 141 string;
#X text 388 150 damping;
#X text 448 141 detuning;
#X text 518 138 body;
#X text 517 150 size;
#X msg 261 46 1 0.14 0.99 1 1.16 53;
#X floatatom 196 228 5 0 9 0 - - -;
#X obj 246 203 bng 15 250 50 0 empty empty empty 0 -6 0 8 -262144 -1
-1;
#X msg 196 248 setmic \$1;
#X obj 684 44 tgl 15 0 empty empty empty 0 -6 0 8 -262144 -1 -1 0 1
;
#X obj 684 66 metro 140;
#X obj 684 90 counter 0 15;
#N canvas 0 0 450 300 graph1 0;
#X array mycoll 16 float 1;
#A 0 71 0 72 76 69 72 76 67 0 72 76 67 69 0 72 76;
#X coords 0 100 15 0 100 70 1;
#X restore 701 313 graph;
#X obj 684 114 tabread mycoll;
#X obj 684 135 sel 0;
#X connect 0 0 1 0;
#X connect 1 0 46 0;
#X connect 2 0 6 0;
#X connect 2 1 7 0;
#X connect 2 2 21 0;
#X connect 2 3 22 0;
#X connect 2 4 23 0;
#X connect 2 5 24 0;
#X connect 3 0 36 0;
#X connect 4 0 5 1;
#X connect 5 0 4 0;
#X connect 6 0 3 0;
#X connect 7 0 8 0;
#X connect 8 0 36 1;
#X connect 9 0 36 2;
#X connect 10 0 36 3;
#X connect 11 0 36 4;
#X connect 12 0 13 0;
#X connect 13 0 36 5;
#X connect 20 0 5 2;
#X connect 21 0 9 0;
#X connect 22 0 10 0;
#X connect 23 0 11 0;
#X connect 24 0 12 0;
#X connect 24 0 48 0;
#X connect 36 0 5 0;
#X connect 46 0 2 0;
#X connect 47 0 49 0;
#X connect 48 0 36 0;
#X connect 49 0 36 0;
#X connect 50 0 51 0;
#X connect 51 0 52 0;
#X connect 52 0 54 0;
#X connect 54 0 55 0;
#X connect 55 1 24 0;
