#N canvas 1 0 651 524 10;
#X text 15 7 plucked~;
#X text 18 26 simple plucked string model;
#X text 12 65 plucked~ is a simple;
#X text 12 78 implementation of the karplus-;
#X text 12 91 strong plucked string;
#X text 12 104 algorithm. you control the;
#X text 12 117 amplitude and frequency of the;
#X text 14 131 model. a bang 'plucks' the;
#X text 12 143 instrument.;
#X obj 303 57 tgl 15 0 empty empty empty 0 -6 0 8 -262144 -1 -1 0 1
;
#X obj 303 84 metro 270;
#X obj 305 113 counter 0 15;
#X obj 304 171 sel 0;
#X obj 306 144 tabread mycoll;
#N canvas 0 0 450 300 graph1 0;
#X array mycoll 16 float 1;
#A 0 0 45 52 57 52 55 57 45 60 0 59 0 57 0 57 57;
#X coords 0 72 15 0 100 70 1;
#X restore 492 273 graph;
#X obj 494 195 tabwrite mycoll;
#X obj 529 141 counter 0 16;
#X floatatom 487 99 5 0 0 0 - - -;
#X obj 529 119 bng 15 250 50 0 empty empty empty 0 -6 0 8 -262144 -1
-1;
#X obj 323 199 mtof;
#X obj 235 26 loadbang;
#X msg 237 51 1;
#X obj 291 315 plucked~;
#X obj 287 279 bng 15 250 50 0 empty empty empty 0 -6 0 8 -262144 -1
-1;
#X floatatom 327 346 0 0 100 0 - - -;
#N canvas 331 136 786 621 output 0;
#X obj 455 510 t b;
#X obj 455 450 f;
#X obj 455 390 inlet;
#X obj 455 540 f;
#X msg 566 532 0;
#X msg 455 420 bang;
#X obj 455 480 moses 1;
#X obj 566 502 t b f;
#X obj 535 460 moses 1;
#X obj 107 121 dbtorms;
#X obj 535 430 r master-lvl;
#X obj 107 28 r master-lvl;
#X obj 455 570 s master-lvl;
#X obj 36 228 inlet~;
#X obj 250 258 inlet;
#X obj 268 283 s master-lvl;
#X msg 119 57 set \$1;
#X obj 119 87 outlet;
#X msg 250 309 \; pd dsp 1;
#X obj 107 181 line~;
#X obj 36 258 *~;
#X obj 36 288 dac~;
#X obj 107 151 pack 0 50;
#X text 23 205 audio in;
#X text 2 313 out both channels;
#X text 273 182 Level input. Send to master-lvl and start DSP (we infer
that if you're changing the level you want to hear the network.) If
you start DSP when it's already running there's no effect.;
#X text 59 542 here is the previous nonzero master-lvl -->;
#X text 98 451 recall previous value of master-lvl -->;
#X text 239 482 test if less than 1 -->;
#X text 203 510 if true convert to bang -->;
#X text 218 351 Mute control. If the master level is zero \, restore
to the last nonzero one \, otherwise zero it.;
#X text 182 86 <-- update the number box to show new level;
#X text 178 120 <-- convert from dB to linear units;
#X text 196 150 <-- make a smooth ramp to avoid clicks or zipper noise
;
#X text 333 318 <-- automatically start DSP;
#X connect 0 0 3 0;
#X connect 1 0 6 0;
#X connect 2 0 5 0;
#X connect 3 0 12 0;
#X connect 4 0 12 0;
#X connect 5 0 1 0;
#X connect 6 0 0 0;
#X connect 6 1 7 0;
#X connect 7 0 4 0;
#X connect 8 1 3 1;
#X connect 9 0 22 0;
#X connect 10 0 1 1;
#X connect 10 0 8 0;
#X connect 11 0 9 0;
#X connect 11 0 16 0;
#X connect 13 0 20 0;
#X connect 14 0 15 0;
#X connect 14 0 18 0;
#X connect 16 0 17 0;
#X connect 19 0 20 1;
#X connect 20 0 21 0;
#X connect 20 0 21 1;
#X connect 22 0 19 0;
#X restore 303 368 pd output;
#X msg 352 345 mute;
#X floatatom 307 280 5 0 0 0 - - -;
#X text 16 224 ported from the STK (by;
#X text 17 238 perry cook and gary scavone.);
#X text 23 302 by dan trueman \,;
#X text 24 316 computer music;
#X text 22 329 cnter \, columbia;
#X text 23 344 university;
#X connect 9 0 10 0;
#X connect 10 0 11 0;
#X connect 11 0 13 0;
#X connect 12 1 19 0;
#X connect 13 0 12 0;
#X connect 16 0 15 1;
#X connect 17 0 18 0;
#X connect 17 0 15 0;
#X connect 18 0 16 0;
#X connect 19 0 22 1;
#X connect 19 0 23 0;
#X connect 20 0 21 0;
#X connect 21 0 27 0;
#X connect 22 0 25 0;
#X connect 23 0 22 0;
#X connect 24 0 25 1;
#X connect 25 0 24 0;
#X connect 26 0 25 2;
#X connect 27 0 22 0;
