#N canvas 396 164 474 324 10;
#X floatatom 106 114 5 0 0;
#X floatatom 119 132 5 20 20000;
#X floatatom 131 151 5 0 0;
#X floatatom 144 169 5 0 0;
#X msg 45 45 bang;
#X text 153 112 number of objects;
#X text 159 130 resonance freq.;
#X text 174 149 shake damping;
#X text 186 166 shake max.;
#X obj 99 257 dac~;
#X obj 99 212 sekere~;
#X text 78 13 ----- sekere~ -----;
#X text 82 45 zeroe delay lines;
#X connect 0 0 10 0;
#X connect 1 0 10 1;
#X connect 2 0 10 2;
#X connect 3 0 10 3;
#X connect 4 0 10 0;
#X connect 10 0 9 0;
#X connect 10 0 9 1;
