#N canvas 396 164 470 320 10;
#X floatatom 99 44 5 0 0;
#X floatatom 112 62 5 20 20000;
#X floatatom 124 81 5 0 0;
#X floatatom 137 99 5 0 0;
#X floatatom 149 118 5 0 0;
#X floatatom 162 136 5 0 0;
#X msg 45 45 bang;
#X text 146 42 number of objects;
#X text 152 60 resonance freq.;
#X text 167 79 shake damping;
#X text 179 96 shake max.;
#X obj 99 257 dac~;
#X text 78 13 ----- sleigh~ -----;
#X obj 99 212 sleigh~;
#X floatatom 175 155 5 0 0;
#X floatatom 188 174 5 0 0;
#X text 197 116 resonance freq 1;
#X text 205 134 resonance freq 2;
#X text 219 152 resonance freq 3;
#X text 232 174 resonance freq 4;
#X text 200 12 sleigh bell;
#X connect 0 0 13 0;
#X connect 1 0 13 1;
#X connect 2 0 13 2;
#X connect 3 0 13 3;
#X connect 4 0 13 4;
#X connect 5 0 13 5;
#X connect 6 0 13 0;
#X connect 13 0 11 0;
#X connect 13 0 11 1;
#X connect 14 0 13 6;
#X connect 15 0 13 7;
