#N canvas 396 164 476 326 10;
#X floatatom 101 84 5 0 0;
#X floatatom 114 102 5 20 20000;
#X floatatom 126 121 5 0 0;
#X floatatom 139 139 5 0 0;
#X msg 45 45 bang;
#X text 148 82 number of objects;
#X text 154 100 resonance freq.;
#X text 169 119 shake damping;
#X text 184 135 shake max.;
#X obj 100 257 dac~;
#X text 82 45 zeroe delay lines;
#X floatatom 153 159 5 0 0;
#X text 78 13 ----- tamb~ -----;
#X obj 100 212 tamb~ 0 0 0;
#X floatatom 173 183 5 0 0;
#X text 197 156 res. freq. 1;
#X text 222 182 res. freq. 2;
#X connect 0 0 13 0;
#X connect 1 0 13 1;
#X connect 2 0 13 2;
#X connect 3 0 13 3;
#X connect 4 0 13 0;
#X connect 11 0 13 4;
#X connect 13 0 9 0;
#X connect 13 0 9 1;
#X connect 14 0 13 5;
