#N canvas 0 0 715 600 10;
#X text 38 166 computer music;
#X text 38 175 center \, columbia;
#X text 39 183 university;
#X floatatom 336 472 0 0 100 0 - - -;
#N canvas 331 136 788 623 output 0;
#X obj 455 510 t b;
#X obj 455 450 f;
#X obj 455 390 inlet;
#X obj 455 540 f;
#X msg 566 532 0;
#X msg 455 420 bang;
#X obj 455 480 moses 1;
#X obj 566 502 t b f;
#X obj 535 460 moses 1;
#X obj 107 121 dbtorms;
#X obj 535 430 r master-lvl;
#X obj 107 28 r master-lvl;
#X obj 455 570 s master-lvl;
#X obj 36 228 inlet~;
#X obj 250 258 inlet;
#X obj 268 283 s master-lvl;
#X msg 119 57 set \$1;
#X obj 119 87 outlet;
#X msg 250 309 \; pd dsp 1;
#X obj 107 181 line~;
#X obj 36 258 *~;
#X obj 36 288 dac~;
#X obj 107 151 pack 0 50;
#X text 23 205 audio in;
#X text 2 313 out both channels;
#X text 273 182 Level input. Send to master-lvl and start DSP (we infer
that if you're changing the level you want to hear the network.) If
you start DSP when it's already running there's no effect.;
#X text 59 542 here is the previous nonzero master-lvl -->;
#X text 98 451 recall previous value of master-lvl -->;
#X text 239 482 test if less than 1 -->;
#X text 203 510 if true convert to bang -->;
#X text 218 351 Mute control. If the master level is zero \, restore
to the last nonzero one \, otherwise zero it.;
#X text 182 86 <-- update the number box to show new level;
#X text 178 120 <-- convert from dB to linear units;
#X text 196 150 <-- make a smooth ramp to avoid clicks or zipper noise
;
#X text 333 318 <-- automatically start DSP;
#X obj 85 227 inlet~;
#X obj 85 257 *~;
#X connect 0 0 3 0;
#X connect 1 0 6 0;
#X connect 2 0 5 0;
#X connect 3 0 12 0;
#X connect 4 0 12 0;
#X connect 5 0 1 0;
#X connect 6 0 0 0;
#X connect 6 1 7 0;
#X connect 7 0 4 0;
#X connect 8 1 3 1;
#X connect 9 0 22 0;
#X connect 10 0 1 1;
#X connect 10 0 8 0;
#X connect 11 0 9 0;
#X connect 11 0 16 0;
#X connect 13 0 20 0;
#X connect 14 0 15 0;
#X connect 14 0 18 0;
#X connect 16 0 17 0;
#X connect 19 0 20 1;
#X connect 19 0 36 1;
#X connect 20 0 21 0;
#X connect 22 0 19 0;
#X connect 35 0 36 0;
#X connect 36 0 21 1;
#X restore 304 492 pd output;
#X msg 359 472 mute;
#X text 39 157 by r. luke dubois \,;
#X text 22 4 waffle~;
#X text 22 18 signal crossover.;
#X text 22 51 waffle~ takes an input signal in its left;
#X text 22 60 inlet \, a crossover signal in its middle inlet \,;
#X text 22 69 and a sync signal in its right inlet. if the sync;
#X text 22 77 signal is below the crossover signal \, the input;
#X text 22 85 is put out the left outlet \, otherwise the;
#X text 22 94 signal is put out the right outlet.;
#X obj 265 220 osc~ 220;
#X obj 319 220 sig~ 0;
#X obj 362 220 osc~ 1;
#X obj 302 275 waffle~;
#X obj 322 344 vsl 9 80 0 1 0 0 empty empty empty 0 -8 0 8 -262144
-1 -1 0 1;
#X obj 303 430 *~ 1;
#X obj 357 343 vsl 9 80 0 1 0 0 empty empty empty 0 -8 0 8 -262144
-1 -1 0 1;
#X obj 338 430 *~ 1;
#X floatatom 362 200 5 0 0 0 - - -;
#X text 443 24 other (more useful?) examples...;
#N canvas 0 0 703 510 spectral_crossover 0;
#X obj 246 37 noise~;
#X floatatom 166 83 5 0 0 0 - - -;
#X text 16 28 you can also use;
#X text 16 37 waffle~ in conjunction;
#X text 16 46 qith flip~ in the signal;
#X text 16 55 network shown below;
#X text 16 64 to create a spectral;
#X text 16 73 crossover function;
#X text 16 82 using the fft~ and;
#X text 16 91 ifft~ objects...;
#X obj 247 72 fft~ 1024 1024;
#X obj 264 118 sig~;
#X obj 246 160 waffle~;
#X obj 325 119 flip~ 511.5;
#X obj 245 197 ifft~ 1024 1024;
#X obj 284 220 ifft~ 1024 1024;
#X floatatom 277 392 0 0 100 0 - - -;
#N canvas 331 136 788 623 output 0;
#X obj 455 510 t b;
#X obj 455 450 f;
#X obj 455 390 inlet;
#X obj 455 540 f;
#X msg 566 532 0;
#X msg 455 420 bang;
#X obj 455 480 moses 1;
#X obj 566 502 t b f;
#X obj 535 460 moses 1;
#X obj 107 121 dbtorms;
#X obj 535 430 r master-lvl;
#X obj 107 28 r master-lvl;
#X obj 455 570 s master-lvl;
#X obj 36 228 inlet~;
#X obj 250 258 inlet;
#X obj 268 283 s master-lvl;
#X msg 119 57 set \$1;
#X obj 119 87 outlet;
#X msg 250 309 \; pd dsp 1;
#X obj 107 181 line~;
#X obj 36 258 *~;
#X obj 36 288 dac~;
#X obj 107 151 pack 0 50;
#X text 23 205 audio in;
#X text 2 313 out both channels;
#X text 273 182 Level input. Send to master-lvl and start DSP (we infer
that if you're changing the level you want to hear the network.) If
you start DSP when it's already running there's no effect.;
#X text 59 542 here is the previous nonzero master-lvl -->;
#X text 98 451 recall previous value of master-lvl -->;
#X text 239 482 test if less than 1 -->;
#X text 203 510 if true convert to bang -->;
#X text 218 351 Mute control. If the master level is zero \, restore
to the last nonzero one \, otherwise zero it.;
#X text 182 86 <-- update the number box to show new level;
#X text 178 120 <-- convert from dB to linear units;
#X text 196 150 <-- make a smooth ramp to avoid clicks or zipper noise
;
#X text 333 318 <-- automatically start DSP;
#X obj 85 227 inlet~;
#X obj 85 257 *~;
#X connect 0 0 3 0;
#X connect 1 0 6 0;
#X connect 2 0 5 0;
#X connect 3 0 12 0;
#X connect 4 0 12 0;
#X connect 5 0 1 0;
#X connect 6 0 0 0;
#X connect 6 1 7 0;
#X connect 7 0 4 0;
#X connect 8 1 3 1;
#X connect 9 0 22 0;
#X connect 10 0 1 1;
#X connect 10 0 8 0;
#X connect 11 0 9 0;
#X connect 11 0 16 0;
#X connect 13 0 20 0;
#X connect 14 0 15 0;
#X connect 14 0 18 0;
#X connect 16 0 17 0;
#X connect 19 0 20 1;
#X connect 19 0 36 1;
#X connect 20 0 21 0;
#X connect 22 0 19 0;
#X connect 35 0 36 0;
#X connect 36 0 21 1;
#X restore 245 412 pd output;
#X msg 300 392 mute;
#X obj 263 263 vsl 9 80 0 1 0 0 empty empty empty 0 -8 0 8 -262144
-1 -1 0 1;
#X obj 302 263 vsl 9 80 0 1 0 0 empty empty empty 0 -8 0 8 -262144
-1 -1 0 1;
#X obj 244 350 *~ 0;
#X obj 283 350 *~ 0;
#X connect 0 0 10 0;
#X connect 1 0 11 0;
#X connect 10 0 12 0;
#X connect 10 1 13 0;
#X connect 11 0 12 1;
#X connect 12 0 14 0;
#X connect 12 1 15 0;
#X connect 13 0 12 2;
#X connect 14 0 21 0;
#X connect 15 0 22 0;
#X connect 16 0 17 2;
#X connect 17 0 16 0;
#X connect 18 0 17 3;
#X connect 19 0 21 1;
#X connect 20 0 22 1;
#X connect 21 0 17 0;
#X connect 22 0 17 1;
#X restore 444 50 pd spectral_crossover;
#N canvas 89 61 584 559 strange_pwm 0;
#X text 22 51 strange doppleresque pwm effects can;
#X text 22 60 be made if you exploit that waffle~;
#X text 22 69 drives one output low (0.) whenever the;
#X text 22 77 other outlet is active.;
#X floatatom 279 388 0 0 100 0 - - -;
#N canvas 331 136 788 623 output 0;
#X obj 455 510 t b;
#X obj 455 450 f;
#X obj 455 390 inlet;
#X obj 455 540 f;
#X msg 566 532 0;
#X msg 455 420 bang;
#X obj 455 480 moses 1;
#X obj 566 502 t b f;
#X obj 535 460 moses 1;
#X obj 107 121 dbtorms;
#X obj 535 430 r master-lvl;
#X obj 107 28 r master-lvl;
#X obj 455 570 s master-lvl;
#X obj 36 228 inlet~;
#X obj 250 258 inlet;
#X obj 268 283 s master-lvl;
#X msg 119 57 set \$1;
#X obj 119 87 outlet;
#X msg 250 309 \; pd dsp 1;
#X obj 107 181 line~;
#X obj 36 258 *~;
#X obj 36 288 dac~;
#X obj 107 151 pack 0 50;
#X text 23 205 audio in;
#X text 2 313 out both channels;
#X text 273 182 Level input. Send to master-lvl and start DSP (we infer
that if you're changing the level you want to hear the network.) If
you start DSP when it's already running there's no effect.;
#X text 59 542 here is the previous nonzero master-lvl -->;
#X text 98 451 recall previous value of master-lvl -->;
#X text 239 482 test if less than 1 -->;
#X text 203 510 if true convert to bang -->;
#X text 218 351 Mute control. If the master level is zero \, restore
to the last nonzero one \, otherwise zero it.;
#X text 182 86 <-- update the number box to show new level;
#X text 178 120 <-- convert from dB to linear units;
#X text 196 150 <-- make a smooth ramp to avoid clicks or zipper noise
;
#X text 333 318 <-- automatically start DSP;
#X obj 85 227 inlet~;
#X obj 85 257 *~;
#X connect 0 0 3 0;
#X connect 1 0 6 0;
#X connect 2 0 5 0;
#X connect 3 0 12 0;
#X connect 4 0 12 0;
#X connect 5 0 1 0;
#X connect 6 0 0 0;
#X connect 6 1 7 0;
#X connect 7 0 4 0;
#X connect 8 1 3 1;
#X connect 9 0 22 0;
#X connect 10 0 1 1;
#X connect 10 0 8 0;
#X connect 11 0 9 0;
#X connect 11 0 16 0;
#X connect 13 0 20 0;
#X connect 14 0 15 0;
#X connect 14 0 18 0;
#X connect 16 0 17 0;
#X connect 19 0 20 1;
#X connect 19 0 36 1;
#X connect 20 0 21 0;
#X connect 22 0 19 0;
#X connect 35 0 36 0;
#X connect 36 0 21 1;
#X restore 247 408 pd output;
#X msg 302 388 mute;
#X obj 245 191 waffle~;
#X obj 265 260 vsl 9 80 0 1 0 0 empty empty empty 0 -8 0 8 -262144
-1 -1 0 1;
#X obj 300 259 vsl 9 80 0 1 0 0 empty empty empty 0 -8 0 8 -262144
-1 -1 0 1;
#X floatatom 324 116 5 0 0 0 - - -;
#X obj 208 136 sig~ 1;
#X obj 262 136 osc~ 100;
#X obj 324 136 osc~ 10;
#X obj 246 346 *~ 0;
#X obj 281 346 *~ 0;
#X connect 4 0 5 2;
#X connect 5 0 4 0;
#X connect 6 0 5 3;
#X connect 7 0 14 0;
#X connect 7 1 15 0;
#X connect 8 0 14 1;
#X connect 9 0 15 1;
#X connect 10 0 13 0;
#X connect 11 0 7 0;
#X connect 12 0 7 1;
#X connect 13 0 7 2;
#X connect 14 0 5 0;
#X connect 15 0 5 1;
#X restore 444 72 pd strange_pwm;
#X connect 3 0 4 2;
#X connect 4 0 3 0;
#X connect 5 0 4 3;
#X connect 15 0 18 0;
#X connect 16 0 18 1;
#X connect 17 0 18 2;
#X connect 18 0 20 0;
#X connect 18 1 22 0;
#X connect 19 0 20 1;
#X connect 20 0 4 0;
#X connect 21 0 22 1;
#X connect 22 0 4 1;
#X connect 23 0 17 0;
