#N canvas 0 0 742 627 10;
#X text 24 -29 computer music;
#X text 24 -20 center \, columbia;
#X text 25 -12 university;
#X floatatom 303 342 0 0 100 0 - - -;
#N canvas 331 136 786 621 output 0;
#X obj 455 510 t b;
#X obj 455 450 f;
#X obj 455 390 inlet;
#X obj 455 540 f;
#X msg 566 532 0;
#X msg 455 420 bang;
#X obj 455 480 moses 1;
#X obj 566 502 t b f;
#X obj 535 460 moses 1;
#X obj 107 121 dbtorms;
#X obj 535 430 r master-lvl;
#X obj 107 28 r master-lvl;
#X obj 455 570 s master-lvl;
#X obj 36 228 inlet~;
#X obj 250 258 inlet;
#X obj 268 283 s master-lvl;
#X msg 119 57 set \$1;
#X obj 119 87 outlet;
#X msg 250 309 \; pd dsp 1;
#X obj 107 181 line~;
#X obj 36 258 *~;
#X obj 36 288 dac~;
#X obj 107 151 pack 0 50;
#X text 23 205 audio in;
#X text 2 313 out both channels;
#X text 273 182 Level input. Send to master-lvl and start DSP (we infer
that if you're changing the level you want to hear the network.) If
you start DSP when it's already running there's no effect.;
#X text 59 542 here is the previous nonzero master-lvl -->;
#X text 98 451 recall previous value of master-lvl -->;
#X text 239 482 test if less than 1 -->;
#X text 203 510 if true convert to bang -->;
#X text 218 351 Mute control. If the master level is zero \, restore
to the last nonzero one \, otherwise zero it.;
#X text 182 86 <-- update the number box to show new level;
#X text 178 120 <-- convert from dB to linear units;
#X text 196 150 <-- make a smooth ramp to avoid clicks or zipper noise
;
#X text 333 318 <-- automatically start DSP;
#X connect 0 0 3 0;
#X connect 1 0 6 0;
#X connect 2 0 5 0;
#X connect 3 0 12 0;
#X connect 4 0 12 0;
#X connect 5 0 1 0;
#X connect 6 0 0 0;
#X connect 6 1 7 0;
#X connect 7 0 4 0;
#X connect 8 1 3 1;
#X connect 9 0 22 0;
#X connect 10 0 1 1;
#X connect 10 0 8 0;
#X connect 11 0 9 0;
#X connect 11 0 16 0;
#X connect 13 0 20 0;
#X connect 14 0 15 0;
#X connect 14 0 18 0;
#X connect 16 0 17 0;
#X connect 19 0 20 1;
#X connect 20 0 21 0;
#X connect 20 0 21 1;
#X connect 22 0 19 0;
#X restore 279 364 pd output;
#X msg 328 342 mute;
#X text 25 -38 by r. luke dubois \,;
#X text 8 -191 weave~;
#X text 8 -177 variable duty-cycle subharmonic oscillator;
#X text 8 -144 weave~ -- an input signal is tracked for;
#X text 8 -135 zero crossings. the zero crossings are counted;
#X text 8 -118 the length of the positive and negative sides;
#X text 8 -110 of the duty cycle you get different;
#X text 8 -101 subharmonics of the original signal.;
#X text 8 -126 and used to synthesize a -1 or 1 based on;
#X text 8 -86 inspired by the Boss octave guitar pedal \,;
#X text 8 -78 which sucks in a similar way.;
#X obj 375 -128 tgl 15 0 empty empty empty 0 -6 0 8 -262144 -1 -1 0
1;
#X obj 375 -108 metro 125;
#X obj 375 -87 counter 0 11;
#X obj 375 -66 tabread mycoll;
#N canvas 0 0 450 300 graph2 0;
#X array mycoll 12 float 1;
#A 0 70 73 79 72 75 73 68 70 79 80 85 82;
#X coords 0 90 11 60 100 70 1;
#X restore 469 -66 graph;
#X obj 375 -44 mtof;
#X msg 375 -22 \$1 20;
#X obj 375 0 line~;
#X obj 375 24 osc~ 200;
#X obj 452 24 adc~;
#X obj 314 153 weave~ 2 2;
#X floatatom 341 127 5 0 0 0 - - -;
#X floatatom 377 127 5 0 0 0 - - -;
#X obj 300 210 vsl 9 80 0 1 0 0 empty empty empty 0 -8 0 8 -262144
-1 -1 0 1;
#X obj 281 296 *~ 1;
#X obj 280 342 +~;
#X obj 332 209 vsl 9 80 0 1 0 0 empty empty empty 0 -8 0 8 -262144
-1 -1 0 1;
#X obj 313 296 *~ 1;
#X text 295 193 dry;
#X text 327 192 wet;
#X msg 257 44 1;
#X msg 285 44 2;
#N canvas 0 0 475 364 choose 0;
#X obj 78 50 inlet;
#X msg 108 122 1 0 0;
#X msg 114 143 0 1 0;
#X obj 240 52 inlet~;
#X obj 297 52 inlet~;
#X obj 240 223 *~ 0;
#X obj 303 221 *~ 0;
#X obj 280 289 +~;
#X obj 287 331 outlet~;
#X floatatom 121 223 5 0 0 0 - - -;
#X floatatom 156 221 5 0 0 0 - - -;
#X obj 94 93 sel 1 2;
#X obj 138 188 unpack 0 0;
#X connect 0 0 11 0;
#X connect 1 0 12 0;
#X connect 2 0 12 0;
#X connect 3 0 5 0;
#X connect 4 0 6 0;
#X connect 5 0 7 0;
#X connect 6 0 7 1;
#X connect 7 0 8 0;
#X connect 11 0 1 0;
#X connect 11 1 2 0;
#X connect 12 0 5 1;
#X connect 12 0 9 0;
#X connect 12 1 6 1;
#X connect 12 1 10 0;
#X restore 280 85 pd choose;
#X obj 257 22 loadbang;
#X text 497 23 plug an instrument in. you;
#X text 498 35 might want to keep it monophonic;
#X text 455 155 arguments are number of zero crossings;
#X text 455 164 to count low and high \, respectively \,;
#X text 455 173 before driving the pwm the other way.;
#X text 455 182 these correspond to the ints that you;
#X text 455 191 send to the inlets;
#X connect 3 0 4 1;
#X connect 4 0 3 0;
#X connect 5 0 4 2;
#X connect 17 0 18 0;
#X connect 18 0 19 0;
#X connect 19 0 20 0;
#X connect 20 0 22 0;
#X connect 22 0 23 0;
#X connect 23 0 24 0;
#X connect 24 0 25 0;
#X connect 25 0 39 1;
#X connect 26 0 39 2;
#X connect 27 0 34 0;
#X connect 28 0 27 0;
#X connect 29 0 27 1;
#X connect 30 0 31 1;
#X connect 31 0 32 0;
#X connect 32 0 4 0;
#X connect 33 0 34 1;
#X connect 34 0 32 1;
#X connect 37 0 39 0;
#X connect 38 0 39 0;
#X connect 39 0 27 0;
#X connect 39 0 31 0;
#X connect 40 0 37 0;
